<?xml version="1.0" standalone="no"?>
<!DOCTYPE svg PUBLIC "-//W3C//DTD SVG 1.1//EN" "http://www.w3.org/Graphics/SVG/1.1/DTD/svg11.dtd" >
<svg>
<metadata>
Created by FontForge 20090914 at Sat Sep 29 11:27:57 2018
 By www-data
SUPERANDERSON FONTS&#194;&#169; by Steve Ferrera (supercarguy@hotmail.com)
</metadata>
<defs>
<font id="AndersonTorchyTheBatteryBoy" horiz-adv-x="60" >
  <font-face 
    font-family="Anderson Torchy The Battery Boy"
    font-weight="400"
    font-stretch="normal"
    units-per-em="2048"
    panose-1="2 0 0 0 0 0 0 0 0 0"
    ascent="1638"
    descent="-410"
    x-height="1438"
    cap-height="1421"
    bbox="29.9971 -385 5819 1794"
    underline-thickness="150"
    underline-position="-142"
    unicode-range="U+0020-U+F005"
  />
<missing-glyph horiz-adv-x="1084" 
d="M30 0v1280h1024v-1280h-1024zM62 32h960v1216h-960v-1216z" />
    <glyph glyph-name=".notdef" horiz-adv-x="1084" 
d="M30 0v1280h1024v-1280h-1024zM62 32h960v1216h-960v-1216z" />
    <glyph glyph-name="space" unicode=" " horiz-adv-x="569" 
 />
    <glyph glyph-name="space" unicode="&#xa0;" horiz-adv-x="569" 
 />
    <glyph glyph-name="exclam" unicode="!" horiz-adv-x="469" 
d="M367 455h-260l-47 966h355zM419 180c0 -52 -17.833 -95.667 -53.5 -131s-79.5 -53 -131.5 -53c-50 0 -93.167 17.667 -129.5 53s-54.5 79 -54.5 131c0 24.667 4.83301 48 14.5 70s23 41.167 40 57.5s36.667 29.166 59 38.499s45.833 14 70.5 14
c26 0 50.333 -4.66699 73 -14s42.167 -22.166 58.5 -38.499s29.333 -35.5 39 -57.5s14.5 -45.333 14.5 -70z" />
    <glyph glyph-name="quotedbl" unicode="&#x22;" horiz-adv-x="712" 
d="M501 1126h-158l82 334h237zM208 1126h-158l82 334h237z" />
    <glyph glyph-name="numbersign" unicode="#" horiz-adv-x="1197" 
d="M1122 883h-277l-37 -162h303l-41 -131h-292l-82 -373h-142l84 373h-190l-82 -373h-141l81 373h-276l45 131h262l37 162h-291l43 129h277l76 329h139l-74 -329h188l74 329h142l-74 -329h293zM517 883l-38 -162h190l35 162h-187z" />
    <glyph glyph-name="dollar" unicode="$" horiz-adv-x="961" 
d="M870 1188c-8.66699 1.33301 -25.8291 3.66797 -51.4961 7.00098s-55.334 4.33301 -89.001 3s-67.167 -5.66602 -100.5 -12.999s-61 -20.666 -83 -39.999c-31.333 -27.333 -46 -59.833 -44 -97.5s21.333 -73.5 58 -107.5l139 -128c54 -50 103.333 -105 148 -165
c41.333 -54.667 65.666 -108.334 72.999 -161.001c2 -15.333 3 -30.333 3 -45c0 -36.667 -6.33301 -72 -19 -106c-18.667 -47.333 -47.834 -89.666 -87.501 -126.999s-85.5 -66.333 -137.5 -87c-16 -6.66699 -35 -13.834 -57 -21.501s-45.333 -14.834 -70 -21.501v-196h-219
v138c-27.333 -6.66699 -52.5 -12 -75.5 -16s-44.167 -7.33301 -63.5 -10l-125 311c8 0 23.667 0.666992 47 2s49.666 4.5 78.999 9.5s59.666 11.167 90.999 18.5s60 16.333 86 27c36.667 16.667 61.5 35.667 74.5 57s17.833 42.833 14.5 64.5s-12.5 42.834 -27.5 63.501
s-31.5 38.334 -49.5 53.001l-53 41l-61.5 49.5l-77.5 63.5c-60 47.333 -102 99.666 -126 156.999c-18 43.333 -27 91 -27 143c0 17.333 1 35.333 3 54c5.33301 49.333 18 90.666 38 123.999s42.667 61.666 68 84.999s52.333 41.5 81 54.5s55.334 23.5 80.001 31.5v180h219
v-135c30 5.33301 56.167 9.33301 78.5 12l68.5 8z" />
    <glyph glyph-name="percent" unicode="%" horiz-adv-x="1367" 
d="M653 1102c0 -44 -8.33398 -84.667 -25.001 -122s-39 -70 -67 -98s-61 -50.167 -99 -66.5s-78.333 -24.5 -121 -24.5c-43.333 0 -83.833 8.16699 -121.5 24.5s-70.5 38.5 -98.5 66.5s-50.167 60.667 -66.5 98s-24.5 78 -24.5 122c0 42 8.16699 82.167 24.5 120.5
s38.5 71.833 66.5 100.5s60.833 51.167 98.5 67.5s78.167 24.5 121.5 24.5c42.667 0 82.667 -8.16699 120 -24.5s70.333 -38.833 99 -67.5s51.334 -62.167 68.001 -100.5s25 -78.5 25 -120.5zM400.999 0h-152l746 1444h153zM1337 297c0 -44 -8.33301 -84.667 -25 -122
s-38.834 -70 -66.501 -98s-60.667 -50.167 -99 -66.5s-78.833 -24.5 -121.5 -24.5c-43.333 0 -83.833 8.16699 -121.5 24.5s-70.5 38.5 -98.5 66.5s-50.167 60.667 -66.5 98s-24.5 78 -24.5 122c0 42 8.16699 82.167 24.5 120.5s38.5 71.833 66.5 100.5
s60.833 51.167 98.5 67.5s78.167 24.5 121.5 24.5c42.667 0 82.667 -8.16699 120 -24.5s70.333 -38.833 99 -67.5s51.334 -62.167 68.001 -100.5s25 -78.5 25 -120.5zM443.999 1102c0 28.667 -10.333 53.167 -31 73.5s-45.334 30.5 -74.001 30.5
s-53.167 -10.167 -73.5 -30.5s-30.5 -44.833 -30.5 -73.5s10.167 -53.334 30.5 -74.001s44.833 -31 73.5 -31s53.334 10.333 74.001 31s31 45.334 31 74.001zM1128 297c0 28.667 -10.333 53.167 -31 73.5s-45.334 30.5 -74.001 30.5s-53.167 -10.167 -73.5 -30.5
s-30.5 -44.833 -30.5 -73.5s10.167 -53.167 30.5 -73.5s44.833 -30.5 73.5 -30.5s53.334 10.167 74.001 30.5s31 44.833 31 73.5z" />
    <glyph glyph-name="ampersand" unicode="&#x26;" horiz-adv-x="1289" 
d="M1238 442c-27.333 2.66699 -51.4971 3.00195 -72.4971 1.00195s-41.167 -4.33301 -60.5 -7c-4 -72 -21 -136 -51 -192s-69.667 -103.167 -119 -141.5s-107 -67.666 -173 -87.999s-138 -30.5 -216 -30.5c-52 0 -98.5 3.66699 -139.5 11s-78.167 18.833 -111.5 34.5
s-64 35.834 -92 60.501s-55 54.667 -81 90c-42 57.333 -67.667 115 -77 173c-4 22.667 -6 45 -6 67c0 34 4.66699 66.667 14 98c14.667 52 40.167 98.833 76.5 140.5s78.833 74.834 127.5 99.501c-60 43.333 -100.167 89.666 -120.5 138.999s-29.833 96.5 -28.5 141.5
s10.5 86 27.5 123s33.833 65.5 50.5 85.5c48.667 61.333 105.834 104 171.501 128s130.167 36.667 193.5 38h18c56.667 0 108.667 -5.33301 156 -16c52.667 -12.667 91.334 -24.334 116.001 -35.001l14 -291c-47.333 48 -100 76.667 -158 86s-109 -1.66699 -153 -33
c-14.667 -10.667 -26.834 -24.5 -36.501 -41.5s-14.5 -34.833 -14.5 -53.5s4.33301 -37.167 13 -55.5s24 -35.5 46 -51.5c23.333 -18 48.333 -26.333 75 -25s49.667 2 69 2l-82 -317c-26 1.33301 -51 -4.16699 -75 -16.5s-43.833 -28.5 -59.5 -48.5
s-25.5 -42.833 -29.5 -68.5s1.33301 -51.5 16 -77.5c15.333 -27.333 36 -47.5 62 -60.5s54 -18.833 84 -17.5s59 8.83301 87 22.5s51.333 34.167 70 61.5c19.333 27.333 33.166 58.666 41.499 93.999s13.166 68.666 14.499 99.999c1.33301 36 -1 73 -7 111
c45.333 10.667 84.666 18.5 117.999 23.5s66.166 7.83301 98.499 8.5s65.833 -0.333008 100.5 -3s76 -6.33398 124 -11.001z" />
    <glyph glyph-name="quotesingle" unicode="'" horiz-adv-x="419" 
d="M208 1126h-158l82 334h237z" />
    <glyph glyph-name="parenleft" unicode="(" horiz-adv-x="699" 
d="M669 -354l-7.99805 -0.00390625c-5.33301 0 -11.5 0.333008 -18.5 1s-13.167 1.33398 -18.5 2.00098s-8.66602 1 -9.99902 1c-87.333 4 -166.833 32.333 -238.5 85s-133.167 122.334 -184.5 209.001s-91 186.334 -119 299.001s-42 231.667 -42 357
c0 124 13.667 241.667 41 353s66.166 210 116.499 296s111 156 182 210s150.5 84.333 238.5 91c1.33301 0 5 0.333008 11 1s12.833 1.33398 20.5 2.00098s14.5 1 20.5 1h9v-380l-61 43c-12.667 5.33301 -34.334 -5 -65.001 -31s-61.667 -66.333 -93 -121
s-59 -121.167 -83 -199.5s-36 -166.833 -36 -265.5c0 -100.667 12.667 -190.667 38 -270s53.666 -146 84.999 -200s62 -93.833 92 -119.5s50.667 -35.167 62 -28.5l30 18c2.66699 2.66699 6.16699 4.66699 10.5 6s7.83301 3.33301 10.5 6c4 2.66699 7.33301 4.66699 10 6
v-372z" />
    <glyph glyph-name="parenright" unicode=")" horiz-adv-x="699" 
d="M669 600c0 -125.333 -13.998 -244.329 -41.998 -356.996s-67.667 -212.334 -119 -299.001s-112.833 -156.334 -184.5 -209.001s-151.167 -81 -238.5 -85c-1.33301 0 -4.66602 -0.333008 -9.99902 -1s-11.5 -1.33398 -18.5 -2.00098s-13.167 -1 -18.5 -1h-8v372
c1.33301 -1.33301 4 -3.33301 8 -6s11.667 -6.66699 23 -12c8 -5.33301 18 -11.333 30 -18c10 -6.66699 30.333 2.83301 61 28.5s61.667 65.5 93 119.5s59.666 120.667 84.999 200s38 169.333 38 270c0 98.667 -12 187.167 -36 265.5s-51.667 144.833 -83 199.5
s-62.333 95 -93 121s-52.334 36.333 -65.001 31l-61 -43v380h9c6 0 12.833 -0.333008 20.5 -1s14.5 -1.33398 20.5 -2.00098s9.66699 -1 11 -1c88 -6.66699 167.5 -37 238.5 -91s131.667 -124 182 -210s89.166 -184.667 116.499 -296s41 -229 41 -353z" />
    <glyph glyph-name="asterisk" unicode="*" horiz-adv-x="722" 
d="M507 1042l-33 5l27 -21l150 -100l-119 -121l-101 153l-22 31l4 -39l39 -186h-170l33 182l4 43l-25 -33l-108 -155l-119 119l147 104l33 23l-43 -7l-174 -28v164l184 -35l35 -4l-26 24l-154 109l117 119l112 -162l21 -29l-2 35l-35 190h170l-37 -190l-4 -35l22 29l97 157
l118 -118l-149 -105l-31 -24l35 4l189 35v-164z" />
    <glyph glyph-name="plus" unicode="+" horiz-adv-x="802" 
d="M501 578v-250h-197v250h-254v196h254v252h197v-252h251v-196h-251z" />
    <glyph glyph-name="comma" unicode="," horiz-adv-x="415" 
d="M206 -124h-156l82 327h233z" />
    <glyph glyph-name="hyphen" unicode="-" horiz-adv-x="942" 
d="M50 469v205h842v-205h-842z" />
    <glyph glyph-name="hyphen" unicode="&#xad;" horiz-adv-x="942" 
d="M50 469v205h842v-205h-842z" />
    <glyph glyph-name="period" unicode="." horiz-adv-x="364" 
d="M314 125c0 -38 -13 -69.333 -39 -94s-56.667 -37 -92 -37s-66.333 12.333 -93 37s-40 56 -40 94c0 35.333 13.333 66 40 92s57.667 39 93 39s66 -13 92 -39s39 -56.667 39 -92z" />
    <glyph glyph-name="slash" unicode="/" horiz-adv-x="698" 
d="M257 -2h-207l399 1470h199z" />
    <glyph glyph-name="zero" unicode="0" horiz-adv-x="1465" 
d="M1435 700c0 -96.667 -18.5 -188 -55.5 -274s-87.5 -161.167 -151.5 -225.5s-138.667 -115.166 -224 -152.499s-176.666 -56 -273.999 -56c-96.667 0 -187.334 18.667 -272.001 56s-158.667 88.166 -222 152.499s-113.5 139.5 -150.5 225.5s-55.5 177.333 -55.5 274
c0 98.667 18.5 191.334 55.5 278.001s87.167 161.667 150.5 225s137.333 113.5 222 150.5s175.334 55.5 272.001 55.5c97.333 0 188.666 -18.5 273.999 -55.5s160 -87.167 224 -150.5s114.5 -138.333 151.5 -225s55.5 -179.334 55.5 -278.001zM1072 700
c0 49.333 -8.83301 95.166 -26.5 137.499s-41.834 79.166 -72.501 110.499s-66.834 56 -108.501 74s-86.5 27 -134.5 27c-47.333 0 -91.5 -9 -132.5 -27s-76.833 -42.667 -107.5 -74s-55 -68.166 -73 -110.499s-27 -88.166 -27 -137.499c0 -47.333 9 -91.833 27 -133.5
s42.333 -78.167 73 -109.5s66.5 -56.333 107.5 -75s85.167 -28 132.5 -28c48 0 92.833 9.33301 134.5 28s77.834 43.667 108.501 75s54.834 67.833 72.501 109.5s26.5 86.167 26.5 133.5z" />
    <glyph glyph-name="one" unicode="1" horiz-adv-x="529" 
d="M149 0v1198h-119v223h469v-1421h-350z" />
    <glyph glyph-name="two" unicode="2" horiz-adv-x="1016" 
d="M896 -2h-851.996l279 766l33.5 94c10.333 30 17.5 58.667 21.5 86s3.66699 52.666 -1 75.999s-16 44.333 -34 63c-22.667 23.333 -52.167 36 -88.5 38s-70.833 -0.333008 -103.5 -7c-40 -8 -80.333 -21.667 -121 -41l135 342c19.333 5.33301 45 10 77 14
c27.333 2.66699 56.666 4 87.999 4h18c38 -0.666992 77.5 -4.5 118.5 -11.5s79.833 -18.833 116.5 -35.5c75.333 -35.333 128.666 -92.166 159.999 -170.499s30.666 -168.833 -2.00098 -271.5c-16.667 -53.333 -33.834 -103.5 -51.501 -150.5l-56.5 -145.5l-62.5 -160
l-71.5 -195l487 55z" />
    <glyph glyph-name="three" unicode="3" horiz-adv-x="885" 
d="M845 555c0.666992 -11.333 0.999023 -22.665 0.999023 -33.998c0 -69.333 -17.333 -135.666 -52 -198.999c-41.333 -74 -104.333 -139.667 -189 -197c-61.333 -41.333 -126 -72.166 -194 -92.499s-141 -39.166 -219 -56.499l-115 257c24.667 2 49.334 5.66699 74.001 11
c22 4 46.167 8.66699 72.5 14s52.5 13 78.5 23c28.667 9.33301 56.334 21.833 83.001 37.5s49.667 34.167 69 55.5s33 46.333 41 75s9.33301 60.667 4 96c-8 46 -26 81.333 -54 106s-59.5 41.5 -94.5 50.5s-70.5 11.833 -106.5 8.5s-65.667 -10 -89 -20l-76 234
c70 10.667 126.167 28.667 168.5 54s74.833 51.666 97.5 78.999c27.333 31.333 47.333 64.666 60 99.999h-314l-61 264h672c9.33301 -66.667 11.333 -131.334 6 -194.001c-4 -54.667 -15.333 -111 -34 -169s-50.334 -108.333 -95.001 -151
c35.333 -10.667 68.333 -27.334 99 -50.001s57.667 -49.334 81 -80.001s42.5 -65.167 57.5 -103.5s24.5 -77.833 28.5 -118.5z" />
    <glyph glyph-name="four" unicode="4" horiz-adv-x="1633" 
d="M1519 205h-240v-207h-331v203h-754l-164 188l909 1032h410l-778 -884l16 -15h361v297h350v-295h305z" />
    <glyph glyph-name="five" unicode="5" horiz-adv-x="967" 
d="M925 532c4 -35.333 6 -68.998 6 -100.998c0 -30 -1.66699 -58.333 -5 -85c-7.33301 -56 -19.5 -106.167 -36.5 -150.5s-38.167 -83.5 -63.5 -117.5s-51.666 -63.667 -78.999 -89s-54 -47.166 -80 -65.499l-68 -47.5c-35.333 -23.333 -75.5 -45 -120.5 -65
s-87.167 -37.333 -126.5 -52c-46.667 -16.667 -94 -32.334 -142 -47.001l-133 306c30 1.33301 65.5 6.16602 106.5 14.499s82.667 21 125 38s82.333 39.5 120 67.5s67.834 62.667 90.501 104c23.333 40.667 37.833 80.834 43.5 120.501s3.33398 75.834 -6.99902 108.501
s-27.5 61.667 -51.5 87s-53.667 44 -89 56c-24.667 8.66699 -53.334 13.667 -86.001 15s-66.5 -1.16699 -101.5 -7.5s-69.5 -16.333 -103.5 -30s-65.333 -29.834 -94 -48.501l70 878h798l-39 -338h-428l-20 -231c72 16.667 138.167 19.167 198.5 7.5
s112.666 -32.834 156.999 -63.501s80.166 -69.334 107.499 -116.001s44.333 -96 51 -148z" />
    <glyph glyph-name="six" unicode="6" horiz-adv-x="1174" 
d="M1144 510c0 -71.333 -14.334 -138.008 -43.001 -200.008s-67.5 -116.167 -116.5 -162.5s-106.667 -83.166 -173 -110.499s-137.166 -41 -212.499 -41c-76 0 -146.5 13 -211.5 39s-122 61.5 -171 106.5s-88.5 98.833 -118.5 161.5s-48.667 131 -56 205
c-2 24 -3 47.667 -3 71c0 66.667 8.33301 132 25 196c22.667 86.667 52.667 169 90 247s78.833 150.667 124.5 218l124.5 181h446l-110.5 -123.5c-34.333 -37.667 -66.5 -75 -96.5 -112s-57.5 -75.167 -82.5 -114.5s-48.5 -83 -70.5 -131
c20 16.667 44.833 28.334 74.5 35.001s60.167 10.334 91.5 11.001s61.333 -0.666016 90 -3.99902s51 -7.66602 67 -12.999c58.667 -20.667 109.167 -46.667 151.5 -78s76.833 -67.166 103.5 -107.499s46.167 -83.666 58.5 -129.999s18.5 -94.166 18.5 -143.499z
M781.999 509.992c0 20.667 -4.83594 40.833 -14.5029 60.5s-22.667 37.667 -39 54s-36.166 29.333 -59.499 39s-48.666 14.5 -75.999 14.5c-24.667 0 -47.5 -4.83301 -68.5 -14.5s-39.667 -22 -56 -37s-29 -32.667 -38 -53s-13.5 -41.5 -13.5 -63.5
c0 -52 17.5 -94.333 52.5 -127s78.167 -49 129.5 -49c50.667 0 93.834 16.333 129.501 49s53.5 75 53.5 127z" />
    <glyph glyph-name="seven" unicode="7" horiz-adv-x="1088" 
d="M628 -258l-315 220l274 1119h-557l82 340h946z" />
    <glyph glyph-name="eight" unicode="8" horiz-adv-x="1109" 
d="M1074 438c-2.66699 -60 -17.6689 -116.667 -45.002 -170s-64.166 -99.666 -110.499 -138.999s-100.5 -71 -162.5 -95s-128.667 -36 -200 -36c-72 0 -139.5 12 -202.5 36s-117.667 55.667 -164 95s-83.166 85.666 -110.499 138.999s-42.333 110 -45 170v17
c0 62.667 13 122 39 178c28.667 61.333 71.667 111.666 129 150.999c-36.667 34.667 -61.167 73.5 -73.5 116.5s-18.5 89.5 -18.5 139.5c0 53.333 12 103.666 36 150.999s56 88.333 96 123s87 62.167 141 82.5s111 30.5 171 30.5s117 -10.167 171 -30.5
s101.167 -47.833 141.5 -82.5s72.5 -75.667 96.5 -123s36 -97.666 36 -150.999c0 -50 -6.16699 -96.5 -18.5 -139.5s-36.833 -81.833 -73.5 -116.5c57.333 -39.333 100.333 -89.666 129 -150.999c26 -54.667 39 -112.667 39 -174c0 -6.66699 -0.333008 -13.667 -1 -21z
M693.998 1040c0 34.667 -13.334 63.834 -40.001 87.501s-61.334 35.5 -104.001 35.5c-39.333 0 -71.666 -11.833 -96.999 -35.5s-38 -52.834 -38 -87.501c0 -31.333 12 -58.833 36 -82.5s57 -35.5 99 -35.5c46.667 0 82.334 11.833 107.001 35.5s37 51.167 37 82.5z
M736.997 453c0 44.667 -16.834 83.834 -50.501 117.501s-75.167 50.5 -124.5 50.5c-50 0 -91.833 -16.833 -125.5 -50.5s-50.5 -72.834 -50.5 -117.501c0 -42.667 15.5 -81 46.5 -115s73.5 -51 127.5 -51c50.667 0 92.834 17 126.501 51s50.5 72.333 50.5 115z" />
    <glyph glyph-name="nine" unicode="9" horiz-adv-x="1152" 
d="M1115 938c1.33301 -16.667 1.99805 -34.002 1.99805 -52.002c0 -46 -4.33301 -94.333 -13 -145c-12.667 -70.667 -31 -142.5 -55 -215.5s-52.333 -145.333 -85 -217s-67.167 -140 -103.5 -205s-72.5 -124.333 -108.5 -178s-69.667 -98.167 -101 -133.5l-283 216l92 128.5
c27.333 39 52.333 77.5 75 115.5s43.834 77.5 63.501 118.5s39.834 86.167 60.501 135.5c-22 -11.333 -46 -19.666 -72 -24.999s-52.333 -8.33301 -79 -9s-52.667 0.333008 -78 3s-48 6.66699 -68 12c-54.667 12.667 -102.834 34 -144.501 64s-76.167 65.5 -103.5 106.5
s-48.166 85.667 -62.499 134s-21.5 97.166 -21.5 146.499c0 69.333 14 134.5 42 195.5s66.167 114 114.5 159s105 80.833 170 107.5s134.5 40 208.5 40c73.333 0 142.5 -12.667 207.5 -38s122 -60.166 171 -104.499s88.5 -97.166 118.5 -158.499s47.667 -128.333 53 -201z
M742.998 937.998c0 48 -16.832 87.999 -50.499 119.999s-76.167 48 -127.5 48c-50.667 0 -93.167 -15.667 -127.5 -47s-51.5 -71.666 -51.5 -120.999c0 -45.333 17.167 -84.333 51.5 -117s78.166 -49 131.499 -49c50 0 91.5 16.667 124.5 50s49.5 72 49.5 116z" />
    <glyph glyph-name="colon" unicode=":" horiz-adv-x="368" 
d="M314 627c0 -38.667 -13 -70.167 -39 -94.5s-56.667 -36.5 -92 -36.5s-66.333 12.167 -93 36.5s-40 55.833 -40 94.5c0 35.333 13.333 66 40 92s57.667 39 93 39s66 -13 92 -39s39 -56.667 39 -92zM318 125c0 -38 -13 -69.333 -39 -94s-56.667 -37 -92 -37
s-66.333 12.333 -93 37s-40 56 -40 94c0 35.333 13.333 66 40 92s57.667 39 93 39s66 -13 92 -39s39 -56.667 39 -92z" />
    <glyph glyph-name="semicolon" unicode=";" horiz-adv-x="419" 
d="M369 627c0 -38.667 -12.833 -70.167 -38.5 -94.5s-56.5 -36.5 -92.5 -36.5c-35.333 0 -66.333 12.167 -93 36.5s-40 55.833 -40 94.5c0 35.333 13.333 66 40 92s57.667 39 93 39c36 0 66.833 -13 92.5 -39s38.5 -56.667 38.5 -92zM206 -124h-156l82 327h233z" />
    <glyph glyph-name="semicolon" unicode="&#x37e;" horiz-adv-x="419" 
d="M369 627c0 -38.667 -12.833 -70.167 -38.5 -94.5s-56.5 -36.5 -92.5 -36.5c-35.333 0 -66.333 12.167 -93 36.5s-40 55.833 -40 94.5c0 35.333 13.333 66 40 92s57.667 39 93 39c36 0 66.833 -13 92.5 -39s38.5 -56.667 38.5 -92zM206 -124h-156l82 327h233z" />
    <glyph glyph-name="less" unicode="&#x3c;" horiz-adv-x="633" 
d="M30 530v132l573 319v-240l-319 -151l319 -162v-242z" />
    <glyph glyph-name="equal" unicode="=" horiz-adv-x="672" 
d="M30 608v156h612v-156h-612zM30 313v158h612v-158h-612z" />
    <glyph glyph-name="greater" unicode="&#x3e;" horiz-adv-x="633" 
d="M30 195v239l319 152l-319 162v241l573 -344v-131z" />
    <glyph glyph-name="question" unicode="?" horiz-adv-x="953" 
d="M921 1096l-0.000976562 -9.99707c0 -28.667 -5 -59 -15 -91c-12 -36.667 -30.667 -73.167 -56 -109.5s-57 -71.166 -95 -104.499s-82.333 -63 -133 -89c-53.333 -27.333 -91 -55 -113 -83s-36.333 -53.667 -43 -77c-6.66699 -25.333 -5.33398 -51 3.99902 -77h-227
c-28.667 28.667 -45.667 61.334 -51 98.001s0.833984 75.167 18.501 115.5s46.667 80.333 87 120s90.5 76.5 150.5 110.5c27.333 19.333 54.333 40.5 81 63.5s46.667 46.167 60 69.5c12.667 20.667 18.167 40.167 16.5 58.5s-7.5 34.666 -17.5 48.999s-24.333 26 -43 35
s-38.667 12.833 -60 11.5c-38.667 -2.66699 -69.5 -15 -92.5 -37s-42.167 -57.667 -57.5 -107h-305c0 30 5.83301 65.5 17.5 106.5s32.5 81 62.5 120s69.833 73.5 119.5 103.5s113.5 50.667 191.5 62c19.333 2.66699 42.333 4 69 4s54.334 -1.83301 83.001 -5.5
s56.334 -8.83398 83.001 -15.501s50 -15.334 70 -26.001c67.333 -38.667 115.666 -82.834 144.999 -132.501s46 -103.834 50 -162.501zM549.999 180.003c0 -52 -17.668 -95.667 -53.001 -131s-79 -53 -131 -53c-50.667 0 -94 17.667 -130 53s-54 79 -54 131
c0 24.667 4.66699 48 14 70s22.5 41.167 39.5 57.5s36.833 29.166 59.5 38.499s46.334 14 71.001 14c26 0 50.167 -4.66699 72.5 -14s41.833 -22.166 58.5 -38.499s29.667 -35.5 39 -57.5s14 -45.333 14 -70z" />
    <glyph glyph-name="at" unicode="@" horiz-adv-x="1422" 
d="M1369 946c6.66699 -36 9.99805 -70.3389 9.99805 -103.006c0 -46 -6.33301 -88.667 -19 -128c-21.333 -68.667 -51 -124 -89 -166c-23.333 -24.667 -46.166 -43.834 -68.499 -57.501s-50.833 -24.5 -85.5 -32.5c-47.333 -12.667 -90.166 -16.834 -128.499 -12.501
s-71.166 13.333 -98.499 27s-48.166 30.334 -62.499 50.001s-21.5 39.167 -21.5 58.5c-14.667 -38.667 -41.834 -65.834 -81.501 -81.501s-80.167 -22.167 -121.5 -19.5c-72 4 -130.167 32 -174.5 84s-63.166 118.333 -56.499 199c4 39.333 14.167 75.833 30.5 109.5
s37.166 63 62.499 88s54 45 86 60s64.333 23.5 97 25.5c36 1.33301 68.667 -2.16699 98 -10.5s52 -22.166 68 -41.499l11 45h184l-41 -254c-8 -51.333 -4.83301 -90.666 9.5 -117.999s43.833 -37.666 88.5 -30.999c31.333 5.33301 57.666 23 78.999 53
s34.666 68.333 39.999 115c6.66699 62.667 0.166992 121.334 -19.5 176.001s-50.667 102.167 -93 142.5s-93.5 72 -153.5 95s-127 34.5 -201 34.5c-72 0 -137.833 -12.5 -197.5 -37.5s-111 -60.167 -154 -105.5s-76.333 -99.333 -100 -162s-35.5 -131.667 -35.5 -207
c0 -82 14.333 -154.667 43 -218s67.167 -116.5 115.5 -159.5s104 -75.833 167 -98.5s128.5 -34 196.5 -34c61.333 0 115.166 6.16699 161.499 18.5s82.5 25.5 108.5 39.5l156 -137c-61.333 -30.667 -128.5 -56.167 -201.5 -76.5s-152.5 -31.166 -238.5 -32.499
c-92 0 -180.333 16.333 -265 49s-159.667 79.834 -225 141.501s-118.166 135.834 -158.499 222.501s-60.5 182.334 -60.5 287.001c0 112 20.167 210.667 60.5 296s92.833 157 157.5 215s138.334 101.833 221.001 131.5s165.667 44.5 249 44.5c82 0 159.167 -10 231.5 -30
s137.166 -51.667 194.499 -95c27.333 -22 53 -44.667 77 -68s45.833 -49 65.5 -77s36.334 -59.333 50.001 -94s24.5 -74.667 32.5 -120zM785.998 777.994c2.66699 28.667 -5.66895 54 -25.002 76s-46.666 33 -81.999 33s-65 -11 -89 -33s-37.333 -48.667 -40 -80
c-4 -32.667 3.83301 -59.5 23.5 -80.5s46.834 -31.5 81.501 -31.5c32.667 0 62 10.5 88 31.5s40.333 49.167 43 84.5z" />
    <glyph glyph-name="A" unicode="A" horiz-adv-x="1495" 
d="M945 1385l520 -1299l-391 -147l-165 346l-219 -163l-138 119l-192 -284l-330 108l495 1082l-73 165zM713 740l-111 -249l231 -24z" />
    <glyph glyph-name="B" unicode="B" horiz-adv-x="1305" 
d="M258 1428c607.333 0 911.001 -133.665 911.001 -400.998c0 -111.333 -46.667 -193.333 -140 -246v-17c164 -38.667 246 -138.334 246 -299.001c0 -236.667 -175.333 -388.334 -526 -455.001c-82.667 -9.33301 -161.334 -14 -236.001 -14c-111.333 0 -214 10.333 -308 31
l-35 1034l-140 19l52 332zM542.001 1109l-4 -328c161.333 20.667 243.333 79 246 175c0 104.667 -80.667 155.667 -242 153zM546.001 273.002c154.667 0 245.333 46.667 272 140c0 104.667 -87.333 157 -262 157z" />
    <glyph glyph-name="C" unicode="C" horiz-adv-x="1113" 
d="M225 1180c138.667 140.667 303.667 211.002 495 211.002c174.667 -10 295.667 -36 363 -78l-66 -408c-69.333 49.333 -150 71.333 -242 66c-167.333 -15.333 -256 -100 -266 -254c0 -198 110.667 -297 332 -297l242 43l-54 -375c0 -46.667 -92 -79.334 -276 -98.001h-12
c-188.667 0 -354 62 -496 186c-139.333 135.333 -209 289.666 -209 462.999c-0.666992 8 -1 18 -1 30c0 38 5 94 15 168c12.667 96 71 210.333 175 343z" />
    <glyph glyph-name="D" unicode="D" horiz-adv-x="1397" 
d="M1263 319c-41.333 -73.333 -89.833 -133.167 -145.5 -179.5s-115.667 -82.166 -180 -107.499s-129.833 -42 -196.5 -50c-50.667 -6 -99.667 -9 -147 -9c-16 0 -31.667 0.333008 -47 1c-62 2.66699 -119 8.66699 -171 18s-107.333 35.333 -166 78l-14 923l-2 115l-164 -2
l57 344c88 6.66699 196.667 10 326 10h66c104.667 -8 206.834 -21.5 306.501 -40.5s193.167 -58.833 280.5 -119.5c78 -52.667 139.833 -119.334 185.5 -200.001s76.5 -166 92.5 -256c8 -46.667 12 -94 12 -142c0 -43.333 -3.33301 -87 -10 -131
c-14.667 -92.667 -42.334 -176.667 -83.001 -252zM872 925.999c-30 58.667 -73.668 101.333 -131.001 128s-117 37 -179 31v-733c68.667 -5.33301 129.334 4.66699 182.001 30s92.667 60.333 120 105c17.333 28.667 30.5 62.167 39.5 100.5s13.833 78 14.5 119
s-2.83301 80.667 -10.5 119s-19.5 71.833 -35.5 100.5z" />
    <glyph glyph-name="E" unicode="E" horiz-adv-x="1242" 
d="M1097 1397l20 -324l-649 -20v-256l305 86l248 -154l-248 -190l-305 86v-277h744l-95 -344l-1042 8l-45 1366v19h1067z" />
    <glyph glyph-name="F" unicode="F" horiz-adv-x="1147" 
d="M1097 1397l20 -324l-649 -20v-291l305 121l248 -154l-248 -190l-305 131v-666l-393 8l-45 1385h1067z" />
    <glyph glyph-name="G" unicode="G" horiz-adv-x="1463" 
d="M1267 557l-26.998 -378.998c-28.667 -43.333 -64.167 -75.333 -106.5 -96s-85.833 -39.667 -130.5 -57c-44 -16.667 -98.333 -27.667 -163 -33c-30.667 -2 -61.667 -3 -93 -3c-36 0 -72.667 1.33301 -110 4c-71.333 6 -142.833 24.333 -214.5 55
s-136.167 74.667 -193.5 132s-104.5 128.666 -141.5 213.999s-55.5 188 -55.5 308v13c0 92 14 176 42 252c29.333 78.667 69.666 147.5 120.999 206.5s111.5 108.167 180.5 147.5s186.5 65.333 352.5 78c175.333 -10 295.666 -36.667 360.999 -80l-68 -410
c-66.667 50.667 -143.667 74.667 -231 72c-84.667 -2.66699 -150.5 -22.5 -197.5 -59.5s-73.5 -104.5 -79.5 -202.5c0 -36.667 2.5 -67 7.5 -91s14.667 -49 29 -75s33.333 -48.167 57 -66.5s54.167 -34.5 91.5 -48.5c32.667 -10.667 66 -15.334 100 -14.001s74.333 6 121 14
l2 117h-113l17 205l514 33l94 -236h-166z" />
    <glyph glyph-name="H" unicode="H" horiz-adv-x="1371" 
d="M1341 1419c0 -253.333 -34.667 -726.333 -104 -1419l-387 -32l13 575l-189 -95l-201 152l-21 -598l-374 -34l-48 1356l457 59l-14 -605l216 135l185 -128l10 563z" />
    <glyph glyph-name="I" unicode="I" horiz-adv-x="453" 
d="M30 0l43 1378l350 43l-88 -1384z" />
    <glyph glyph-name="J" unicode="J" horiz-adv-x="736" 
d="M665 479c-5.33301 -78 -19.332 -144.832 -41.999 -200.499s-53.834 -106.5 -93.501 -152.5s-87.167 -88 -142.5 -126s-117.666 -76.667 -186.999 -116l-170 304c54.667 23.333 100 47.666 136 72.999s65 52.333 87 81s38.167 59 48.5 91s16.166 68.667 17.499 110l16 934
l371 -70z" />
    <glyph glyph-name="K" unicode="K" horiz-adv-x="1236" 
d="M941 -73l-549 591l-12 -518l-332 -75l-18 1550l350 -54l37 -565l502 606l287 -143l-422 -604l381 -584z" />
    <glyph glyph-name="L" unicode="L" horiz-adv-x="1158" 
d="M1128 0l-1098 35l63 1405l433 -54l-99 -1044l680 -23z" />
    <glyph glyph-name="M" unicode="M" horiz-adv-x="1954" 
d="M1609 -100l-313 632l-340 -562l-304 621l-255 -617l-367 114l541 1350l391 -686l418 673l544 -1325z" />
    <glyph glyph-name="N" unicode="N" horiz-adv-x="1486" 
d="M609 635l-9 -686l-432 28v1111h-138l74 300h308l628 -569l5 598h411l-51 -1513z" />
    <glyph glyph-name="O" unicode="O" horiz-adv-x="1533" 
d="M765 1448c124.667 0 245.335 -32.167 362.002 -96.5s208.5 -155.833 275.5 -274.5s100.5 -242.667 100.5 -372c0 -128.667 -32.5 -251.667 -97.5 -369s-155.833 -208.666 -272.5 -273.999s-239.334 -98 -368.001 -98c-126.667 0 -248.334 32.667 -365.001 98
s-207.5 156.666 -272.5 273.999s-97.5 240.333 -97.5 369c0 129.333 32.833 253.333 98.5 372s157.167 210.167 274.5 274.5s238 96.5 362 96.5zM610.501 983.5c-49.667 -26.333 -87.999 -64.333 -114.999 -114s-40.5 -101.5 -40.5 -155.5c0 -52 13.5 -102.5 40.5 -151.5
s65 -87 114 -114s99.5 -40.5 151.5 -40.5c54 0 105.5 13.5 154.5 40.5s86.833 65 113.5 114s40 99.5 40 151.5c0 54 -13.833 105.833 -41.5 155.5s-66 87.667 -115 114s-99.5 39.5 -151.5 39.5c-50.667 0 -100.834 -13.167 -150.501 -39.5z" />
    <glyph glyph-name="P" unicode="P" horiz-adv-x="1307" 
d="M450 1466c252.667 -6.66699 436.335 -43.335 551.002 -110.002c122.667 -80.667 203 -194.667 241 -342c3.33301 -26 5 -51 5 -75c0 -158.667 -66.333 -282.667 -199 -372c-54.667 -35.333 -140.334 -64.666 -257.001 -87.999s-194.334 -32 -233.001 -26l-32 -467
l-344 -51l-41 1148h-111l23 363c104.667 6.66699 237 13.334 397 20.001zM558.001 716.999c148 0 224 60.667 228 182c-11.333 101.333 -86 162 -224 182z" />
    <glyph glyph-name="Q" unicode="Q" horiz-adv-x="1543" 
d="M1513 743c0 -94 -16.166 -182.333 -48.499 -265s-86.5 -170.667 -162.5 -264l174 -191l-211 -152l-166 217c-118.667 -57.333 -227.334 -86 -326.001 -86c-103.333 0 -199.833 19.5 -289.5 58.5s-168.167 91.833 -235.5 158.5s-120.5 145.167 -159.5 235.5
s-58.5 186.5 -58.5 288.5c0 104 19.5 201.833 58.5 293.5s92.167 171.167 159.5 238.5s145.833 120.5 235.5 159.5s186.167 58.5 289.5 58.5c101.333 0 197 -19.5 287 -58.5s168.5 -92.167 235.5 -159.5s120 -146.833 159 -238.5s58.5 -189.5 58.5 -293.5zM1005 741
c0 37.333 -6.50293 71.6631 -19.5029 102.996s-31.167 58.666 -54.5 81.999s-50.666 41.666 -81.999 54.999s-64.666 20 -99.999 20s-68.833 -6.66699 -100.5 -20s-58.667 -31.666 -81 -54.999s-40.666 -50.666 -54.999 -81.999s-21.5 -65.666 -21.5 -102.999
c0 -35.333 7.16699 -68.666 21.5 -99.999s32.666 -58.666 54.999 -81.999s49.333 -42.166 81 -56.499s65.167 -21.5 100.5 -21.5c20.667 0 27.334 0.666992 20.001 2l-43 56l193 141l53 -66c22 40 33 82.333 33 127z" />
    <glyph glyph-name="R" unicode="R" horiz-adv-x="1457" 
d="M1273 987c-4 -110.667 -70.998 -229.332 -200.998 -355.999l355 -424c-204.667 -106.667 -328.334 -160 -371.001 -160l-461 447l-4 -482l-385 6v224l-6 821l-170 -8l92 299c67.333 30 190.666 45 369.999 45c77.333 0 165 -2.66699 263 -8
c341.333 -38.667 514 -173.334 518 -404.001zM595.002 825.002h142c77.333 0 130.333 35.667 159 107c0 74.667 -53 121.667 -159 141h-142v-248z" />
    <glyph glyph-name="S" unicode="S" horiz-adv-x="957" 
d="M898 1139c-8 1.33301 -27.3311 3.6709 -57.998 7.00391s-65.5 4.66602 -104.5 3.99902s-78 -4.5 -117 -11.5s-69.833 -19.833 -92.5 -38.5c-31.333 -26 -46 -58.5 -44 -97.5s21.333 -74.833 58 -107.5c19.333 -16.667 39.166 -32.834 59.499 -48.501l78.5 -63.5
c32 -26.667 63.333 -54.334 94 -83.001s55.667 -56.667 75 -84c40 -56 63.333 -110.333 70 -163c2 -14.667 3 -29 3 -43c0 -37.333 -6.33301 -72.333 -19 -105c-18 -46 -46.5 -87.5 -85.5 -124.5s-84.5 -65.833 -136.5 -86.5c-28.667 -10.667 -64.167 -22.5 -106.5 -35.5
s-86.333 -25.667 -132 -38s-90.334 -23.166 -134.001 -32.499s-81.167 -16 -112.5 -20l-131 339c8 0 25.333 0.333008 52 1s57 3.16699 91 7.5s68.833 10.166 104.5 17.499s66.5 16.333 92.5 27c36.667 16.667 61.167 35.667 73.5 57s17.5 38.333 15.5 51
s-10.167 29.334 -24.5 50.001s-29.833 37.667 -46.5 51l-229 158c-64 44 -107 95.667 -129 155c-16 43.333 -24 90.666 -24 141.999c0 18.667 1 37.667 3 57c7.33301 63.333 26 114.666 56 153.999s62.667 70 98 92s70.166 37.833 104.499 47.5s59.5 16.5 75.5 20.5
c49.333 12 99.833 21.167 151.5 27.5s100.834 12.833 147.501 19.5z" />
    <glyph glyph-name="T" unicode="T" horiz-adv-x="1334" 
d="M1234 1440c32.667 -81.333 56 -211.333 70 -390l-355 -57l68 -953c-101.333 -37.333 -235 -60 -401 -68l-173 976l-390 -47l-23 379z" />
    <glyph glyph-name="U" unicode="U" horiz-adv-x="1274" 
d="M1181 -49l-406.001 45.0029l-40 74c-16.667 -16.667 -37.334 -31.834 -62.001 -45.501s-51.334 -24.167 -80.001 -31.5s-58.667 -12.333 -90 -15s-60.666 -2.66699 -87.999 0c-68 4 -125.667 17.833 -173 41.5s-84.666 53.667 -111.999 90s-47 76.666 -59 120.999
s-17.333 89.166 -16 134.499l-25 1081l414 14l-17 -964c-1.33301 -40 5.16699 -70.833 19.5 -92.5s31.5 -38 51.5 -49s36.833 -17.5 50.5 -19.5s25.834 -1.66699 36.501 1c45.333 -6.66699 79.5 10.5 102.5 51.5s35.167 97.5 36.5 169.5l43 870l357 -24l-29 -1165l149 -27z
" />
    <glyph glyph-name="V" unicode="V" horiz-adv-x="1422" 
d="M714 -55l-684 1323l354 209l342 -712l357 650l309 -143z" />
    <glyph glyph-name="W" unicode="W" horiz-adv-x="1877" 
d="M1392 18l-469 688l-397 -663l-496 1229l293 110l319 -534l281 637l420 -686l207 676l297 -140z" />
    <glyph glyph-name="X" unicode="X" horiz-adv-x="1340" 
d="M964 -30l-346 485l-352 -485l-236 165l340 565l-334 488l275 266l323 -389l285 389l321 -160l-392 -524l462 -615z" />
    <glyph glyph-name="Y" unicode="Y" horiz-adv-x="1618" 
d="M1249 1467l339 -233l-931 -1254l-339 214l284 437l-572 603l466 161l377 -431z" />
    <glyph glyph-name="Z" unicode="Z" horiz-adv-x="1534" 
d="M1135 1457l369 -253l-783 -1280l-398 173l282 506l-575 591l338 234l466 -471z" />
    <glyph glyph-name="bracketleft" unicode="[" horiz-adv-x="623" 
d="M30 -337v1934h549v-200h-195v-1534h209v-200h-563z" />
    <glyph glyph-name="backslash" unicode="\" horiz-adv-x="658" 
d="M429 -20l-399 1470h207l391 -1470h-199z" />
    <glyph glyph-name="bracketright" unicode="]" horiz-adv-x="623" 
d="M30 -337v200h209v1534h-195v200h549v-1934h-563z" />
    <glyph glyph-name="asciicircum" unicode="^" horiz-adv-x="715" 
d="M589 1171l-231 179l-232 -179l-96 103l328 252l327 -252z" />
    <glyph glyph-name="underscore" unicode="_" horiz-adv-x="1688" 
d="M30 -385v250h1628v-250h-1628z" />
    <glyph glyph-name="grave" unicode="`" horiz-adv-x="379" 
d="M192 956l-162 334h238l81 -334h-157z" />
    <glyph glyph-name="a" unicode="a" horiz-adv-x="1495" 
d="M945 1385l520 -1299l-391 -147l-165 346l-219 -163l-138 119l-192 -284l-330 108l495 1082l-73 165zM713 740l-111 -249l231 -24z" />
    <glyph glyph-name="b" unicode="b" horiz-adv-x="1283" 
d="M399 1464c95.333 0 182 -3.33301 260 -10c346.667 -43.333 520 -199 520 -467c0 -60 -53.333 -131.667 -160 -215c156 -96.667 234 -216.667 234 -360c-53.333 -274.667 -209 -412 -467 -412h-127c-153.333 0 -303 24 -449 72l-18 1095h-162l55 287
c113.333 6.66699 218 10 314 10zM560 825c112 0 187.333 36.333 226 109c16 28.667 16 58 0 88c-38.667 72 -114.667 108 -228 108zM560 305c136.667 0 217.333 35.666 242 106.999c0 100.667 -80.667 157.334 -242 170.001v-277z" />
    <glyph glyph-name="c" unicode="c" horiz-adv-x="1113" 
d="M225 1180c138.667 140.667 303.667 211.002 495 211.002c174.667 -10 295.667 -36 363 -78l-66 -408c-69.333 49.333 -150 71.333 -242 66c-167.333 -15.333 -256 -100 -266 -254c0 -198 110.667 -297 332 -297l242 43l-54 -375c0 -46.667 -92 -79.334 -276 -98.001h-12
c-188.667 0 -354 62 -496 186c-139.333 135.333 -209 289.666 -209 462.999c-0.666992 8 -1 18 -1 30c0 38 5 94 15 168c12.667 96 71 210.333 175 343z" />
    <glyph glyph-name="d" unicode="d" horiz-adv-x="1397" 
d="M1263 319c-41.333 -73.333 -89.833 -133.167 -145.5 -179.5s-115.667 -82.166 -180 -107.499s-129.833 -42 -196.5 -50c-50.667 -6 -99.667 -9 -147 -9c-16 0 -31.667 0.333008 -47 1c-62 2.66699 -119 8.66699 -171 18s-107.333 35.333 -166 78l-14 923l-2 115l-164 -2
l57 344c88 6.66699 196.667 10 326 10h66c104.667 -8 206.834 -21.5 306.501 -40.5s193.167 -58.833 280.5 -119.5c78 -52.667 139.833 -119.334 185.5 -200.001s76.5 -166 92.5 -256c8 -46.667 12 -94 12 -142c0 -43.333 -3.33301 -87 -10 -131
c-14.667 -92.667 -42.334 -176.667 -83.001 -252zM872 925.999c-30 58.667 -73.668 101.333 -131.001 128s-117 37 -179 31v-733c68.667 -5.33301 129.334 4.66699 182.001 30s92.667 60.333 120 105c17.333 28.667 30.5 62.167 39.5 100.5s13.833 78 14.5 119
s-2.83301 80.667 -10.5 119s-19.5 71.833 -35.5 100.5z" />
    <glyph glyph-name="e" unicode="e" horiz-adv-x="1242" 
d="M1097 1397l20 -324l-649 -20v-256l305 86l248 -154l-248 -190l-305 86v-277h744l-95 -344l-1042 8l-45 1366v19h1067z" />
    <glyph glyph-name="f" unicode="f" horiz-adv-x="1147" 
d="M1097 1397l20 -324l-649 -20v-291l305 121l248 -154l-248 -190l-305 131v-666l-393 8l-45 1385h1067z" />
    <glyph glyph-name="g" unicode="g" horiz-adv-x="1463" 
d="M1267 557l-26.998 -378.998c-28.667 -43.333 -64.167 -75.333 -106.5 -96s-85.833 -39.667 -130.5 -57c-44 -16.667 -98.333 -27.667 -163 -33c-30.667 -2 -61.667 -3 -93 -3c-36 0 -72.667 1.33301 -110 4c-71.333 6 -142.833 24.333 -214.5 55
s-136.167 74.667 -193.5 132s-104.5 128.666 -141.5 213.999s-55.5 188 -55.5 308v13c0 92 14 176 42 252c29.333 78.667 69.666 147.5 120.999 206.5s111.5 108.167 180.5 147.5s186.5 65.333 352.5 78c175.333 -10 295.666 -36.667 360.999 -80l-68 -410
c-66.667 50.667 -143.667 74.667 -231 72c-84.667 -2.66699 -150.5 -22.5 -197.5 -59.5s-73.5 -104.5 -79.5 -202.5c0 -36.667 2.5 -67 7.5 -91s14.667 -49 29 -75s33.333 -48.167 57 -66.5s54.167 -34.5 91.5 -48.5c32.667 -10.667 66 -15.334 100 -14.001s74.333 6 121 14
l2 117h-113l17 205l514 33l94 -236h-166z" />
    <glyph glyph-name="h" unicode="h" horiz-adv-x="1371" 
d="M1341 1419c0 -253.333 -34.667 -726.333 -104 -1419l-387 -32l13 575l-189 -95l-201 152l-21 -598l-374 -34l-48 1356l457 59l-14 -605l216 135l185 -128l10 563z" />
    <glyph glyph-name="i" unicode="i" horiz-adv-x="453" 
d="M30 0l43 1378l350 43l-88 -1384z" />
    <glyph glyph-name="j" unicode="j" horiz-adv-x="736" 
d="M665 479c-5.33301 -78 -19.332 -144.832 -41.999 -200.499s-53.834 -106.5 -93.501 -152.5s-87.167 -88 -142.5 -126s-117.666 -76.667 -186.999 -116l-170 304c54.667 23.333 100 47.666 136 72.999s65 52.333 87 81s38.167 59 48.5 91s16.166 68.667 17.499 110l16 934
l371 -70z" />
    <glyph glyph-name="k" unicode="k" horiz-adv-x="1236" 
d="M941 -73l-549 591l-12 -518l-332 -75l-18 1550l350 -54l37 -565l502 606l287 -143l-422 -604l381 -584z" />
    <glyph glyph-name="l" unicode="l" horiz-adv-x="1158" 
d="M1128 0l-1098 35l63 1405l433 -54l-99 -1044l680 -23z" />
    <glyph glyph-name="m" unicode="m" horiz-adv-x="1954" 
d="M1609 -100l-313 632l-340 -562l-304 621l-255 -617l-367 114l541 1350l391 -686l418 673l544 -1325z" />
    <glyph glyph-name="n" unicode="n" horiz-adv-x="1486" 
d="M609 635l-9 -686l-432 28v1111h-138l74 300h308l628 -569l5 598h411l-51 -1513z" />
    <glyph glyph-name="o" unicode="o" horiz-adv-x="1533" 
d="M765 1448c124.667 0 245.335 -32.167 362.002 -96.5s208.5 -155.833 275.5 -274.5s100.5 -242.667 100.5 -372c0 -128.667 -32.5 -251.667 -97.5 -369s-155.833 -208.666 -272.5 -273.999s-239.334 -98 -368.001 -98c-126.667 0 -248.334 32.667 -365.001 98
s-207.5 156.666 -272.5 273.999s-97.5 240.333 -97.5 369c0 129.333 32.833 253.333 98.5 372s157.167 210.167 274.5 274.5s238 96.5 362 96.5zM637.501 935.5c-41 -21.667 -72.5 -52.834 -94.5 -93.501s-33 -83 -33 -127c0 -43.333 11 -85 33 -125s53.167 -71 93.5 -93
s81.833 -33 124.5 -33c44 0 86.167 11 126.5 33s71.5 53 93.5 93s33 81.667 33 125c0 44 -11.333 86.333 -34 127s-54.167 71.834 -94.5 93.501s-81.833 32.5 -124.5 32.5c-41.333 0 -82.5 -10.833 -123.5 -32.5z" />
    <glyph glyph-name="p" unicode="p" horiz-adv-x="1307" 
d="M450 1466c252.667 -6.66699 436.335 -43.335 551.002 -110.002c122.667 -80.667 203 -194.667 241 -342c3.33301 -26 5 -51 5 -75c0 -158.667 -66.333 -282.667 -199 -372c-54.667 -35.333 -140.334 -64.666 -257.001 -87.999s-194.334 -32 -233.001 -26l-32 -467
l-344 -51l-41 1148h-111l23 363c104.667 6.66699 237 13.334 397 20.001zM558.001 716.999c148 0 224 60.667 228 182c-11.333 101.333 -86 162 -224 182z" />
    <glyph glyph-name="q" unicode="q" horiz-adv-x="1543" 
d="M1513 743c0 -94 -16.166 -182.333 -48.499 -265s-86.5 -170.667 -162.5 -264l174 -191l-211 -152l-166 217c-118.667 -57.333 -227.334 -86 -326.001 -86c-103.333 0 -199.833 19.5 -289.5 58.5s-168.167 91.833 -235.5 158.5s-120.5 145.167 -159.5 235.5
s-58.5 186.5 -58.5 288.5c0 104 19.5 201.833 58.5 293.5s92.167 171.167 159.5 238.5s145.833 120.5 235.5 159.5s186.167 58.5 289.5 58.5c101.333 0 197 -19.5 287 -58.5s168.5 -92.167 235.5 -159.5s120 -146.833 159 -238.5s58.5 -189.5 58.5 -293.5zM1005 741
c0 37.333 -6.50293 71.6631 -19.5029 102.996s-31.167 58.666 -54.5 81.999s-50.666 41.666 -81.999 54.999s-64.666 20 -99.999 20s-68.833 -6.66699 -100.5 -20s-58.667 -31.666 -81 -54.999s-40.666 -50.666 -54.999 -81.999s-21.5 -65.666 -21.5 -102.999
c0 -35.333 7.16699 -68.666 21.5 -99.999s32.666 -58.666 54.999 -81.999s49.333 -42.166 81 -56.499s65.167 -21.5 100.5 -21.5c20.667 0 27.334 0.666992 20.001 2l-43 56l193 141l53 -66c22 40 33 82.333 33 127z" />
    <glyph glyph-name="r" unicode="r" horiz-adv-x="1352" 
d="M450 1466c252.667 -6.66699 436.334 -43.334 551.001 -110.001c122.667 -80.667 203 -194.667 241 -342c23.333 -195.333 -41.334 -344.333 -194.001 -447l274 -542l-354 -168l-68 100c-174.667 300.667 -288.667 466 -342 496l-32 -467l-344 -51l-41 1124h-111l33 309
c98 58.667 227 91.334 387 98.001zM561 720c144 0 218.001 59.667 222.001 179c-10.667 99.333 -83.334 159 -218.001 179z" />
    <glyph glyph-name="s" unicode="s" horiz-adv-x="957" 
d="M898 1139c-8 1.33301 -27.3311 3.6709 -57.998 7.00391s-65.5 4.66602 -104.5 3.99902s-78 -4.5 -117 -11.5s-69.833 -19.833 -92.5 -38.5c-31.333 -26 -46 -58.5 -44 -97.5s21.333 -74.833 58 -107.5c19.333 -16.667 39.166 -32.834 59.499 -48.501l78.5 -63.5
c32 -26.667 63.333 -54.334 94 -83.001s55.667 -56.667 75 -84c40 -56 63.333 -110.333 70 -163c2 -14.667 3 -29 3 -43c0 -37.333 -6.33301 -72.333 -19 -105c-18 -46 -46.5 -87.5 -85.5 -124.5s-84.5 -65.833 -136.5 -86.5c-28.667 -10.667 -64.167 -22.5 -106.5 -35.5
s-86.333 -25.667 -132 -38s-90.334 -23.166 -134.001 -32.499s-81.167 -16 -112.5 -20l-131 339c8 0 25.333 0.333008 52 1s57 3.16699 91 7.5s68.833 10.166 104.5 17.499s66.5 16.333 92.5 27c36.667 16.667 61.167 35.667 73.5 57s17.5 38.333 15.5 51
s-10.167 29.334 -24.5 50.001s-29.833 37.667 -46.5 51l-229 158c-64 44 -107 95.667 -129 155c-16 43.333 -24 90.666 -24 141.999c0 18.667 1 37.667 3 57c7.33301 63.333 26 114.666 56 153.999s62.667 70 98 92s70.166 37.833 104.499 47.5s59.5 16.5 75.5 20.5
c49.333 12 99.833 21.167 151.5 27.5s100.834 12.833 147.501 19.5z" />
    <glyph glyph-name="t" unicode="t" horiz-adv-x="1369" 
d="M30 1321l1288 94l21 -393l-475 -18l-50 -971l-354 -39l-74 991l-356 -18v354z" />
    <glyph glyph-name="u" unicode="u" horiz-adv-x="1274" 
d="M1181 -49l-406.001 45.0029l-40 74c-16.667 -16.667 -37.334 -31.834 -62.001 -45.501s-51.334 -24.167 -80.001 -31.5s-58.667 -12.333 -90 -15s-60.666 -2.66699 -87.999 0c-68 4 -125.667 17.833 -173 41.5s-84.666 53.667 -111.999 90s-47 76.666 -59 120.999
s-17.333 89.166 -16 134.499l-25 1081l414 14l-17 -964c-1.33301 -40 5.16699 -70.833 19.5 -92.5s31.5 -38 51.5 -49s36.833 -17.5 50.5 -19.5s25.834 -1.66699 36.501 1c45.333 -6.66699 79.5 10.5 102.5 51.5s35.167 97.5 36.5 169.5l43 870l357 -24l-29 -1165l149 -27z
" />
    <glyph glyph-name="v" unicode="v" horiz-adv-x="1422" 
d="M714 -55l-684 1323l354 209l342 -712l357 650l309 -143z" />
    <glyph glyph-name="w" unicode="w" horiz-adv-x="1877" 
d="M1392 18l-469 688l-397 -663l-496 1229l293 110l319 -534l281 637l420 -686l207 676l297 -140z" />
    <glyph glyph-name="x" unicode="x" horiz-adv-x="1340" 
d="M964 -30l-346 485l-352 -485l-236 165l340 565l-334 488l275 266l323 -389l285 389l321 -160l-392 -524l462 -615z" />
    <glyph glyph-name="y" unicode="y" horiz-adv-x="1689" 
d="M428 1452l499 -516l346 479c58 -20.667 186.667 -121 386 -301l-1025 -1304l-381 200l382 531l-605 609z" />
    <glyph glyph-name="z" unicode="z" horiz-adv-x="1229" 
d="M1044 -10l-1014 22l600 1073l-526 -22l90 375l1005 -25l-565 -1104l502 -53z" />
    <glyph glyph-name="braceleft" unicode="{" horiz-adv-x="859" 
d="M550 -354c-72 74 -135.997 151.999 -191.997 233.999c-24.667 34 -48.334 71 -71.001 111s-42.834 81.833 -60.501 125.5s-31.667 88.834 -42 135.501s-14.833 93 -13.5 139c0 2.66699 -5.33301 12.5 -16 29.5l-37.5 60.5l-45.5 72l-42 63c15.333 16.667 31.5 36 48.5 58
l49 62.5c15.667 19.667 28.667 37 39 52s15.5 23.833 15.5 26.5c0 48 5 95.5 15 142.5s24.333 93 43 138s39.167 88.333 61.5 130s45.833 80.167 70.5 115.5c56 84.667 119.333 164 190 238l254 -20c-61.333 -75.333 -114.333 -154 -159 -236
c-19.333 -35.333 -38.166 -72.833 -56.499 -112.5s-34.333 -81 -48 -124s-24.334 -86.667 -32.001 -131s-10.167 -89.166 -7.5 -134.499c-1.33301 -4 -8.83301 -16.833 -22.5 -38.5l-44.5 -69.5l-66 -97l60 -110l40.5 -77c12.333 -24 18.5 -37.333 18.5 -40
c-2.66699 -40.667 0 -82.167 8 -124.5s19.667 -84 35 -125s33.166 -80.5 53.499 -118.5s40.833 -74.333 61.5 -109c48.667 -78.667 106 -154.334 172 -227.001z" />
    <glyph glyph-name="bar" unicode="|" horiz-adv-x="410" 
d="M30 -385v1847h350v-1847h-350z" />
    <glyph glyph-name="braceright" unicode="}" horiz-adv-x="859" 
d="M829 616c-12.667 -17.333 -26.8369 -38.333 -42.5039 -63l-45 -72l-38 -60.5c-11 -17 -16.5 -26.833 -16.5 -29.5c0 -46 -5 -92.333 -15 -139s-23.667 -91.834 -41 -135.501s-37.166 -85.5 -59.499 -125.5s-45.833 -77 -70.5 -111c-56 -82 -120 -160 -192 -234l-279 39
c65.333 72.667 122.666 148.334 171.999 227.001c20.667 34.667 40.834 71 60.501 109s37 77.5 52 118.5s26.667 82.667 35 125s11.833 83.833 10.5 124.5c0 2.66699 6.16699 16 18.5 40l40.5 77c16.667 32.667 36.667 69.334 60 110.001l-66 97l-46.5 69.5
c-14.333 21.667 -21.5 34.5 -21.5 38.5c2.66699 45.333 0.333984 90.166 -6.99902 134.499s-17.833 88 -31.5 131s-29.667 84.333 -48 124s-37.166 77.167 -56.499 112.5c-45.333 82 -98.666 160.667 -159.999 236l254 20c71.333 -74 135 -153.333 191 -238
c24.667 -35.333 48.167 -73.833 70.5 -115.5s42.333 -85 60 -130s32 -91 43 -138s16.5 -94.5 16.5 -142.5c0 -2.66699 5.16699 -11.5 15.5 -26.5s23.333 -32.333 39 -52l49 -62.5c17 -22 33.167 -41.333 48.5 -58z" />
    <glyph glyph-name="asciitilde" unicode="~" horiz-adv-x="5859" 
d="M144 1794h25c113.333 0 170 -172 170 -516v-133c0 -23.333 -43.667 -35 -131 -35c87.333 -234.667 131 -395 131 -481v-152c0 -320.667 -47.667 -481 -143 -481h-39c-78 0 -117 127.667 -117 383v283l27 32h102c-86 276 -129 498.667 -129 668v33
c0 241.333 34.667 374.333 104 399zM5715 1794c69.334 -24.667 104 -157.668 104 -399.001v-234l-26 -33h-78l-27 33v318l-24 32h-12l-15 -116v-49c0 -83.333 56 -306 168 -668l14 -250v-100c0 -221.333 -38.666 -332 -116 -332h-15c-102 0 -153 94.333 -153 283l-15 165
v234c0 22 13 33 39 33c52 -11.333 78 -27.666 78 -48.999v-302l15 -114h36v198c0 116 -51 338 -153 666l-15 217c0 311.333 65 467 195 467zM351 1729h27c62.667 0 96.667 -17.333 102 -52v-1317l27 -32l25 32v1317h14c62.667 0 96.667 -16.333 102 -49v-1116
c0 -278.667 -47 -418 -141 -418h-78c-48 0 -74 116.667 -78 350v1285zM5496 1729l12 -17.001v-201l-26 -32h-66v-1368l-25 -33c-68 6.66699 -102 23.667 -102 51v1317l-14 -19h-39l-27 35v166c0 28.667 95.666 62.334 287 101.001zM663 1645l39 0.000976562
c163.333 -18 245 -96 245 -234l13 -182v-369c0 -54.667 -22 -104.334 -66 -149.001h-102v-533c-6 -32.667 -41 -49 -105 -49l-24 33v1483zM5185 1645l12 -17v-1466l-27 -33c-94 0 -141 43.667 -141 131l-27 350h-12v-383l-27 -32h-77l-25 32v1317c0 34 52 51 156 51
c16 -30 29 -158.333 39 -385h12v385c0 26 39 42.667 117 50zM974 1563h39c138 -23.333 207 -46 207 -68v-117l-27 -32h-90v-302h90l27 -32v-133l-27 -33h-90v-418l90 16h12l27 -32v-133c0 -27.333 -82 -50 -246 -68l-12 16v1336zM183 1528l-14 -117v-98l27 -168h12v350z
M4757 1544c60 0 90 -99.667 90 -299v-717c0 -188 -34.334 -282 -103 -282h-92c-56 0 -86 121.333 -90 364v584c0 233.333 65 350 195 350zM1244 1511l15 -0.000976562c189.333 0 284 -94 284 -282v-168l-39 -133l39 -133v-451c0 -27.333 -39 -43.666 -117 -48.999l-14 16
v484c0 16 -16.333 33 -49 51v-535c-5.33301 -34 -40 -51 -104 -51l-15 19v1232zM4535 1495l15 -16.001v-133l-27 -33h-102v-285h90l24 -33v-100l-24 -35h-90v-516l-27 -33h-78l-26 33v1083c0 38.667 81.666 61.334 245 68.001zM1672 1446c122 -18 183 -90.333 183 -217v-834
c-6 -34 -41 -51 -105 -51l-27 35v467h-51v-486l-24 -32h-66l-26 32v869c0 118.667 38.667 191 116 217zM4070 1427l13 -15.999v-1016l-27 -35h-102c-26 0 -48 111.333 -66 334h-12v-282l-27 -33c-68 5.33301 -102 21.666 -102 48.999v934l24 33h117
c28.667 0 45.667 -67 51 -201h15v184c0 26 38.667 42.333 116 49zM792 1395v-484h12l27 33v350c0 57.333 -13 91 -39 101zM1867 1411h142.999c24.667 0 41.667 -100.333 51.001 -301h13v252l26 33h78l27 -33v-934l-27 -33h-104c-28.667 0 -50 99.667 -64 299h-12v-282
l-27 -33h-78l-26 33v999zM2244 1378l90 0.000976562c120 0 180 -89.333 180 -268v-432c0 -152.667 -30 -241.334 -90 -266.001h-180l-27 32v902zM3642 1378c54.667 0 85 -83.333 91 -250v-532c0 -122.667 -35 -184 -105 -184h-63c-86 0 -129 83.333 -129 250v448
c0 178.667 60 268 180 268h26zM2555 1362h207l24 -35v-82l-24 -35h-105v-215h90l27 -34v-66l-27 -35h-90v-282h105l24 -33v-84l-24 -33h-207l-27 33v866zM2825 1362h78c139.333 0 209 -67 209 -201v-84c0 -57.333 -13.667 -107 -41 -149v-17c27.333 -42 41 -91.667 41 -149
v-301l-27 -33h-77l-27 33v366l-51 19v-385l-27 -33h-78l-24 33v866zM3241 1346h51c86 0 129 -72.667 129 -218v-100l-24 -33h-92v199h-39l-25 -33v-33c0 -43.333 60 -154.333 180 -333v-185c0 -121.333 -43 -182 -129 -182h-39c-86 0 -129 72.333 -129 217v133
c0 22 39 33 117 33c-78 113.333 -117 191 -117 233v52c0 166.667 39 250 117 250zM1363 1313v-285h25l24 33v217l-24 35h-25zM4679 1278v-817l26 -33h27v885h-27zM1687 1278l-15 -84v-182h51v250zM2930 1229v-234h39v215zM2334 1210v-649h24l39 49v535l-51 65h-12z
M3565 1161v-583l24 -33h27v665c-34 -16 -51 -32.333 -51 -49zM3241 794.999v-185l25 -32h39v133zM168.999 677.999v-432h39v266l-25 166h-14zM2373 366.999c39.333 -4.66699 58.999 -25.333 58.999 -62c-16.667 -122.667 -37.667 -184 -63 -184
c10.667 -18 16 -32.333 16 -43c-19.333 -128 -44.666 -205 -76 -231c-17.333 -10.667 -33.666 -16 -48.999 -16h-59l-4 4h-5l117 527l4 5h60zM2788 367c33.333 0 52.666 -20.667 58 -62c-10 -79.333 -22.333 -124.333 -37 -135h-37l-2 4h-4c12 39.333 18 76.333 18 111h-8v4
c-14.667 0 -26.334 -29.333 -35 -88l43 -152c0 -39.333 -11.333 -97 -34 -173c-22 -30 -47.333 -45 -76 -45c-36 5.33301 -54 24.333 -54 57c14 99.333 26.333 149 37 149h35l4 -4h4l-22 -119v-4l8 -8c22 0 36.333 32 43 96l-47 172c12 105.333 33 164 63 176
c0 5.33301 14.333 12.333 43 21zM2348 301l-35 -151h4c28.667 0 47.334 46.333 56 139l-13 12h-12zM2473 205l8 -6v-74l-4 -35v-4h4c28.667 79.333 45.667 119 51 119h33l4 -4h4c-74.667 -158 -113.334 -263.667 -116 -317c-7.33301 -35.333 -14.333 -53 -21 -53h-39l-4 4
h-4l37 163l4 203l2 4h41zM2850 205h123l4 -4h4c-2.66699 -31.333 -8 -47 -16 -47h-35l-76 -323h-45l-4 4h-4l71 319h-34l-5 4h-4c7.33301 31.333 14.333 47 21 47zM3128 205l4 -4h5c-6 -31.333 -13 -47 -21 -47h-67l-21 -97h61l9 -8c-4 -26 -9.66699 -39 -17 -39h-63
l-29 -126h68l4 -4h4c-2.66699 -32.667 -8 -49 -16 -49h-123l-4 4h-5l84 370h127zM3200 205l4 -4h4l-26 -221v-4h4l71 225l5 4h43l4 -4h4l-123 -370h-74l-4 4h-2l43 366l4 4h43zM3460 205l4 -4h4c-5.33301 -31.333 -11.333 -47 -18 -47h-70l-18 -97h59l8 -8
c-4 -26 -9.33301 -39 -16 -39h-63l-29 -126h67l5 -4h4c-2.66699 -32.667 -8.33398 -49 -17 -49h-123l-4 4h-4l84 370h127zM2301 78l-43 -186h2c26 0 42.333 34 49 102c11.333 26 17 50 17 72c-3.33301 8 -11.666 12 -25 12z" />
    <glyph glyph-name="exclamdown" unicode="&#xa1;" 
 />
    <glyph glyph-name="cent" unicode="&#xa2;" 
 />
    <glyph glyph-name="sterling" unicode="&#xa3;" horiz-adv-x="1316" 
d="M1066 -2c-24.667 22 -46.5 40.502 -65.5 55.502s-38.5 27.5 -58.5 37.5s-40.5 18.5 -61.5 25.5s-44.5 12.5 -70.5 16.5c-48 8 -95.167 10.667 -141.5 8s-104.833 -15.667 -175.5 -39c-41.333 -13.333 -75.666 -26.166 -102.999 -38.499s-56 -23.333 -86 -33
s-65.167 -17.5 -105.5 -23.5s-93.833 -10.333 -160.5 -13v305c23.333 0 47.333 1.33301 72 4c21.333 2.66699 45.333 6.5 72 11.5s53.667 12.167 81 21.5v340h-151v256h151v219c0 86 26.667 163.167 80 231.5s119.833 122.5 199.5 162.5s167.5 48.167 263.5 24.5
s182 -83.167 258 -178.5l-123 -197c-52.667 64 -105.667 104.667 -159 122s-99.333 13.666 -138 -11.001s-62 -53.5 -70 -86.5s-12 -64.5 -12 -94.5v-192h211v-256h-211v-273c82 27.333 157.5 39.666 226.5 36.999s131.5 -13.834 187.5 -33.501s105.167 -44.5 147.5 -74.5
s77.166 -59.333 104.499 -88z" />
    <glyph glyph-name="currency" unicode="&#xa4;" 
 />
    <glyph glyph-name="yen" unicode="&#xa5;" 
 />
    <glyph glyph-name="brokenbar" unicode="&#xa6;" 
 />
    <glyph glyph-name="section" unicode="&#xa7;" 
 />
    <glyph glyph-name="dieresis" unicode="&#xa8;" 
 />
    <glyph glyph-name="copyright" unicode="&#xa9;" horiz-adv-x="1455" 
d="M1425 782c0 -95.333 -18.167 -186 -54.5 -272s-85.833 -161.5 -148.5 -226.5s-136.667 -116.5 -222 -154.5s-176.666 -57 -273.999 -57c-94 0 -183 19 -267 57s-157.667 89.5 -221 154.5s-113.833 140.5 -151.5 226.5s-56.5 176.667 -56.5 272
c0 97.333 18.833 189 56.5 275s88.167 161 151.5 225s137 114.833 221 152.5s173 56.5 267 56.5c97.333 0 188.666 -18.833 273.999 -56.5s159.333 -88.5 222 -152.5s112.167 -139 148.5 -225s54.5 -177.667 54.5 -275zM1281 782c0 75.333 -14.665 147.5 -43.998 216.5
s-69.5 129.333 -120.5 181s-110.333 93 -178 124s-139.834 46.5 -216.501 46.5c-76 0 -146.833 -15.5 -212.5 -46.5s-122.667 -72.333 -171 -124s-86.5 -112 -114.5 -181s-42 -141.167 -42 -216.5c0 -76 14 -148.167 42 -216.5s66.167 -128.166 114.5 -179.499
s105.666 -92.333 171.999 -123s137.5 -46 213.5 -46c76.667 0 148.834 15.333 216.501 46s126.667 71.667 177 123s90.166 111.166 119.499 179.499s44 140.5 44 216.5zM477.002 1050c80 80.667 175.331 120.999 285.998 120.999
c100.667 -5.33301 170.334 -20.333 209.001 -45l-38 -235c-40 28.667 -86.333 41.334 -139 38.001c-97.333 -8.66699 -148.666 -57.334 -153.999 -146.001c0 -114.667 64 -172 192 -172l139 25l-31 -216c0 -26.667 -53 -45.667 -159 -57
c-112 -1.33301 -209.667 34.667 -293 108c-80.667 78 -121 167 -121 267c-2 20 0.666992 57.833 8 113.5s41 121.834 101 198.501z" />
    <glyph glyph-name="ordfeminine" unicode="&#xaa;" 
 />
    <glyph glyph-name="guillemotleft" unicode="&#xab;" 
 />
    <glyph glyph-name="logicalnot" unicode="&#xac;" 
 />
    <glyph glyph-name="registered" unicode="&#xae;" horiz-adv-x="758" 
d="M728 1253c0 -48.667 -9.16699 -94.167 -27.5 -136.5s-43.166 -78.833 -74.499 -109.5s-67.833 -54.667 -109.5 -72s-85.834 -26 -132.501 -26c-47.333 0 -92.5 8.66699 -135.5 26s-80.667 41.333 -113 72s-58 67.167 -77 109.5s-28.5 87.833 -28.5 136.5
c0 50.667 9.5 97.834 28.5 141.501s44.667 81.167 77 112.5s70 56.333 113 75s88.167 28 135.5 28c46.667 0 90.834 -9.33301 132.501 -28s78.167 -43.667 109.5 -75s56.166 -68.833 74.499 -112.5s27.5 -90.834 27.5 -141.501zM653 1253c0 40 -7.16992 77.333 -21.5029 112
s-33.833 65.334 -58.5 92.001s-53 47.5 -85 62.5s-66.667 22.5 -104 22.5c-38 0 -73.667 -7.5 -107 -22.5s-62.666 -35.833 -87.999 -62.5s-45.166 -57.334 -59.499 -92.001s-21.5 -72 -21.5 -112c0 -39.333 7.16699 -75.666 21.5 -108.999s33.833 -62.333 58.5 -87
s53.667 -44.167 87 -58.5s69 -21.5 107 -21.5c37.333 0 72.333 7.16699 105 21.5s61.334 33.833 86.001 58.5s44.167 53.667 58.5 87s21.5 69.666 21.5 108.999zM478.997 1083l-117 141.998v-125h-80v254c-6.66699 0 -22.334 -1 -47.001 -3l7 69c12 4 50.667 8.66699 116 14
c10.667 1.33301 23.834 0.5 39.501 -2.5s31 -7.83301 46 -14.5s28 -16.5 39 -29.5s17.167 -29.833 18.5 -50.5c4 -17.333 0.5 -35.666 -10.5 -54.999s-24.5 -33.666 -40.5 -42.999l92 -104zM358.997 1287c20 -1.33301 35.168 2.83203 45.501 12.499
s15.166 18.334 14.499 26.001s-6.16699 16.5 -16.5 26.5s-24.833 14.333 -43.5 13v-78z" />
    <glyph glyph-name="macron" unicode="&#xaf;" 
 />
    <glyph glyph-name="degree" unicode="&#xb0;" 
 />
    <glyph glyph-name="plusminus" unicode="&#xb1;" 
 />
    <glyph glyph-name="uni00B2" unicode="&#xb2;" 
 />
    <glyph glyph-name="uni00B3" unicode="&#xb3;" 
 />
    <glyph glyph-name="acute" unicode="&#xb4;" horiz-adv-x="489" 
 />
    <glyph glyph-name="mu" unicode="&#xb5;" 
 />
    <glyph glyph-name="paragraph" unicode="&#xb6;" 
 />
    <glyph glyph-name="periodcentered" unicode="&#xb7;" 
 />
    <glyph glyph-name="periodcentered" unicode="&#x2219;" 
 />
    <glyph glyph-name="cedilla" unicode="&#xb8;" 
 />
    <glyph glyph-name="uni00B9" unicode="&#xb9;" 
 />
    <glyph glyph-name="ordmasculine" unicode="&#xba;" 
 />
    <glyph glyph-name="guillemotright" unicode="&#xbb;" 
 />
    <glyph glyph-name="onequarter" unicode="&#xbc;" 
 />
    <glyph glyph-name="onehalf" unicode="&#xbd;" 
 />
    <glyph glyph-name="threequarters" unicode="&#xbe;" 
 />
    <glyph glyph-name="questiondown" unicode="&#xbf;" 
 />
    <glyph glyph-name="Agrave" unicode="&#xc0;" 
 />
    <glyph glyph-name="Aacute" unicode="&#xc1;" 
 />
    <glyph glyph-name="Acircumflex" unicode="&#xc2;" 
 />
    <glyph glyph-name="Atilde" unicode="&#xc3;" 
 />
    <glyph glyph-name="Adieresis" unicode="&#xc4;" 
 />
    <glyph glyph-name="Aring" unicode="&#xc5;" 
 />
    <glyph glyph-name="AE" unicode="&#xc6;" 
 />
    <glyph glyph-name="Ccedilla" unicode="&#xc7;" 
 />
    <glyph glyph-name="Egrave" unicode="&#xc8;" 
 />
    <glyph glyph-name="Eacute" unicode="&#xc9;" 
 />
    <glyph glyph-name="Ecircumflex" unicode="&#xca;" 
 />
    <glyph glyph-name="Edieresis" unicode="&#xcb;" 
 />
    <glyph glyph-name="Igrave" unicode="&#xcc;" 
 />
    <glyph glyph-name="Iacute" unicode="&#xcd;" 
 />
    <glyph glyph-name="Icircumflex" unicode="&#xce;" 
 />
    <glyph glyph-name="Idieresis" unicode="&#xcf;" 
 />
    <glyph glyph-name="Eth" unicode="&#xd0;" 
 />
    <glyph glyph-name="Ntilde" unicode="&#xd1;" 
 />
    <glyph glyph-name="Ograve" unicode="&#xd2;" 
 />
    <glyph glyph-name="Oacute" unicode="&#xd3;" 
 />
    <glyph glyph-name="Ocircumflex" unicode="&#xd4;" 
 />
    <glyph glyph-name="Otilde" unicode="&#xd5;" 
 />
    <glyph glyph-name="Odieresis" unicode="&#xd6;" 
 />
    <glyph glyph-name="multiply" unicode="&#xd7;" 
 />
    <glyph glyph-name="Oslash" unicode="&#xd8;" 
 />
    <glyph glyph-name="Ugrave" unicode="&#xd9;" 
 />
    <glyph glyph-name="Uacute" unicode="&#xda;" 
 />
    <glyph glyph-name="Ucircumflex" unicode="&#xdb;" 
 />
    <glyph glyph-name="Udieresis" unicode="&#xdc;" 
 />
    <glyph glyph-name="Yacute" unicode="&#xdd;" 
 />
    <glyph glyph-name="Thorn" unicode="&#xde;" 
 />
    <glyph glyph-name="germandbls" unicode="&#xdf;" 
 />
    <glyph glyph-name="agrave" unicode="&#xe0;" 
 />
    <glyph glyph-name="aacute" unicode="&#xe1;" 
 />
    <glyph glyph-name="acircumflex" unicode="&#xe2;" 
 />
    <glyph glyph-name="atilde" unicode="&#xe3;" 
 />
    <glyph glyph-name="adieresis" unicode="&#xe4;" 
 />
    <glyph glyph-name="aring" unicode="&#xe5;" 
 />
    <glyph glyph-name="ae" unicode="&#xe6;" 
 />
    <glyph glyph-name="ccedilla" unicode="&#xe7;" 
 />
    <glyph glyph-name="egrave" unicode="&#xe8;" 
 />
    <glyph glyph-name="eacute" unicode="&#xe9;" 
 />
    <glyph glyph-name="ecircumflex" unicode="&#xea;" 
 />
    <glyph glyph-name="edieresis" unicode="&#xeb;" 
 />
    <glyph glyph-name="igrave" unicode="&#xec;" 
 />
    <glyph glyph-name="iacute" unicode="&#xed;" 
 />
    <glyph glyph-name="icircumflex" unicode="&#xee;" 
 />
    <glyph glyph-name="idieresis" unicode="&#xef;" 
 />
    <glyph glyph-name="eth" unicode="&#xf0;" 
 />
    <glyph glyph-name="ntilde" unicode="&#xf1;" 
 />
    <glyph glyph-name="ograve" unicode="&#xf2;" 
 />
    <glyph glyph-name="oacute" unicode="&#xf3;" 
 />
    <glyph glyph-name="ocircumflex" unicode="&#xf4;" 
 />
    <glyph glyph-name="otilde" unicode="&#xf5;" 
 />
    <glyph glyph-name="odieresis" unicode="&#xf6;" 
 />
    <glyph glyph-name="divide" unicode="&#xf7;" 
 />
    <glyph glyph-name="oslash" unicode="&#xf8;" 
 />
    <glyph glyph-name="ugrave" unicode="&#xf9;" 
 />
    <glyph glyph-name="uacute" unicode="&#xfa;" 
 />
    <glyph glyph-name="ucircumflex" unicode="&#xfb;" 
 />
    <glyph glyph-name="udieresis" unicode="&#xfc;" 
 />
    <glyph glyph-name="yacute" unicode="&#xfd;" 
 />
    <glyph glyph-name="thorn" unicode="&#xfe;" 
 />
    <glyph glyph-name="ydieresis" unicode="&#xff;" 
 />
    <glyph glyph-name="Amacron" unicode="&#x100;" 
 />
    <glyph glyph-name="amacron" unicode="&#x101;" 
 />
    <glyph glyph-name="Abreve" unicode="&#x102;" 
 />
    <glyph glyph-name="abreve" unicode="&#x103;" 
 />
    <glyph glyph-name="Aogonek" unicode="&#x104;" 
 />
    <glyph glyph-name="aogonek" unicode="&#x105;" 
 />
    <glyph glyph-name="Cacute" unicode="&#x106;" 
 />
    <glyph glyph-name="cacute" unicode="&#x107;" 
 />
    <glyph glyph-name="Ccircumflex" unicode="&#x108;" 
 />
    <glyph glyph-name="ccircumflex" unicode="&#x109;" 
 />
    <glyph glyph-name="Cdotaccent" unicode="&#x10a;" 
 />
    <glyph glyph-name="cdotaccent" unicode="&#x10b;" 
 />
    <glyph glyph-name="Ccaron" unicode="&#x10c;" 
 />
    <glyph glyph-name="ccaron" unicode="&#x10d;" 
 />
    <glyph glyph-name="Dcaron" unicode="&#x10e;" 
 />
    <glyph glyph-name="dcaron" unicode="&#x10f;" 
 />
    <glyph glyph-name="Dcroat" unicode="&#x110;" 
 />
    <glyph glyph-name="dcroat" unicode="&#x111;" 
 />
    <glyph glyph-name="Emacron" unicode="&#x112;" 
 />
    <glyph glyph-name="emacron" unicode="&#x113;" 
 />
    <glyph glyph-name="Ebreve" unicode="&#x114;" 
 />
    <glyph glyph-name="ebreve" unicode="&#x115;" 
 />
    <glyph glyph-name="Edotaccent" unicode="&#x116;" 
 />
    <glyph glyph-name="edotaccent" unicode="&#x117;" 
 />
    <glyph glyph-name="Eogonek" unicode="&#x118;" 
 />
    <glyph glyph-name="eogonek" unicode="&#x119;" 
 />
    <glyph glyph-name="Ecaron" unicode="&#x11a;" 
 />
    <glyph glyph-name="ecaron" unicode="&#x11b;" 
 />
    <glyph glyph-name="Gcircumflex" unicode="&#x11c;" 
 />
    <glyph glyph-name="gcircumflex" unicode="&#x11d;" 
 />
    <glyph glyph-name="Gbreve" unicode="&#x11e;" 
 />
    <glyph glyph-name="gbreve" unicode="&#x11f;" 
 />
    <glyph glyph-name="Gdotaccent" unicode="&#x120;" 
 />
    <glyph glyph-name="gdotaccent" unicode="&#x121;" 
 />
    <glyph glyph-name="Gcommaaccent" unicode="&#x122;" 
 />
    <glyph glyph-name="gcommaaccent" unicode="&#x123;" 
 />
    <glyph glyph-name="Hcircumflex" unicode="&#x124;" 
 />
    <glyph glyph-name="hcircumflex" unicode="&#x125;" 
 />
    <glyph glyph-name="Hbar" unicode="&#x126;" 
 />
    <glyph glyph-name="hbar" unicode="&#x127;" 
 />
    <glyph glyph-name="Itilde" unicode="&#x128;" 
 />
    <glyph glyph-name="itilde" unicode="&#x129;" 
 />
    <glyph glyph-name="Imacron" unicode="&#x12a;" 
 />
    <glyph glyph-name="imacron" unicode="&#x12b;" 
 />
    <glyph glyph-name="Ibreve" unicode="&#x12c;" 
 />
    <glyph glyph-name="ibreve" unicode="&#x12d;" 
 />
    <glyph glyph-name="Iogonek" unicode="&#x12e;" 
 />
    <glyph glyph-name="iogonek" unicode="&#x12f;" 
 />
    <glyph glyph-name="Idotaccent" unicode="&#x130;" 
 />
    <glyph glyph-name="dotlessi" unicode="&#x131;" 
 />
    <glyph glyph-name="IJ" unicode="&#x132;" 
 />
    <glyph glyph-name="ij" unicode="&#x133;" 
 />
    <glyph glyph-name="Jcircumflex" unicode="&#x134;" 
 />
    <glyph glyph-name="jcircumflex" unicode="&#x135;" 
 />
    <glyph glyph-name="Kcommaaccent" unicode="&#x136;" 
 />
    <glyph glyph-name="kcommaaccent" unicode="&#x137;" 
 />
    <glyph glyph-name="kgreenlandic" unicode="&#x138;" 
 />
    <glyph glyph-name="Lacute" unicode="&#x139;" 
 />
    <glyph glyph-name="lacute" unicode="&#x13a;" 
 />
    <glyph glyph-name="Lcommaaccent" unicode="&#x13b;" 
 />
    <glyph glyph-name="lcommaaccent" unicode="&#x13c;" 
 />
    <glyph glyph-name="Lcaron" unicode="&#x13d;" 
 />
    <glyph glyph-name="lcaron" unicode="&#x13e;" 
 />
    <glyph glyph-name="Ldot" unicode="&#x13f;" 
 />
    <glyph glyph-name="ldot" unicode="&#x140;" 
 />
    <glyph glyph-name="Lslash" unicode="&#x141;" 
 />
    <glyph glyph-name="lslash" unicode="&#x142;" 
 />
    <glyph glyph-name="Nacute" unicode="&#x143;" 
 />
    <glyph glyph-name="nacute" unicode="&#x144;" 
 />
    <glyph glyph-name="Ncommaaccent" unicode="&#x145;" 
 />
    <glyph glyph-name="ncommaaccent" unicode="&#x146;" 
 />
    <glyph glyph-name="Ncaron" unicode="&#x147;" 
 />
    <glyph glyph-name="ncaron" unicode="&#x148;" 
 />
    <glyph glyph-name="napostrophe" unicode="&#x149;" 
 />
    <glyph glyph-name="Eng" unicode="&#x14a;" 
 />
    <glyph glyph-name="eng" unicode="&#x14b;" 
 />
    <glyph glyph-name="Omacron" unicode="&#x14c;" 
 />
    <glyph glyph-name="omacron" unicode="&#x14d;" 
 />
    <glyph glyph-name="Obreve" unicode="&#x14e;" 
 />
    <glyph glyph-name="obreve" unicode="&#x14f;" 
 />
    <glyph glyph-name="Ohungarumlaut" unicode="&#x150;" 
 />
    <glyph glyph-name="ohungarumlaut" unicode="&#x151;" 
 />
    <glyph glyph-name="OE" unicode="&#x152;" 
 />
    <glyph glyph-name="oe" unicode="&#x153;" 
 />
    <glyph glyph-name="Racute" unicode="&#x154;" 
 />
    <glyph glyph-name="racute" unicode="&#x155;" 
 />
    <glyph glyph-name="Rcommaaccent" unicode="&#x156;" 
 />
    <glyph glyph-name="rcommaaccent" unicode="&#x157;" 
 />
    <glyph glyph-name="Rcaron" unicode="&#x158;" 
 />
    <glyph glyph-name="rcaron" unicode="&#x159;" 
 />
    <glyph glyph-name="Sacute" unicode="&#x15a;" 
 />
    <glyph glyph-name="sacute" unicode="&#x15b;" 
 />
    <glyph glyph-name="Scircumflex" unicode="&#x15c;" 
 />
    <glyph glyph-name="scircumflex" unicode="&#x15d;" 
 />
    <glyph glyph-name="Scedilla" unicode="&#x15e;" 
 />
    <glyph glyph-name="scedilla" unicode="&#x15f;" 
 />
    <glyph glyph-name="Scaron" unicode="&#x160;" 
 />
    <glyph glyph-name="scaron" unicode="&#x161;" 
 />
    <glyph glyph-name="Tcommaaccent" unicode="&#x162;" 
 />
    <glyph glyph-name="tcommaaccent" unicode="&#x163;" 
 />
    <glyph glyph-name="Tcaron" unicode="&#x164;" 
 />
    <glyph glyph-name="tcaron" unicode="&#x165;" 
 />
    <glyph glyph-name="Tbar" unicode="&#x166;" 
 />
    <glyph glyph-name="tbar" unicode="&#x167;" 
 />
    <glyph glyph-name="Utilde" unicode="&#x168;" 
 />
    <glyph glyph-name="utilde" unicode="&#x169;" 
 />
    <glyph glyph-name="Umacron" unicode="&#x16a;" 
 />
    <glyph glyph-name="umacron" unicode="&#x16b;" 
 />
    <glyph glyph-name="Ubreve" unicode="&#x16c;" 
 />
    <glyph glyph-name="ubreve" unicode="&#x16d;" 
 />
    <glyph glyph-name="Uring" unicode="&#x16e;" 
 />
    <glyph glyph-name="uring" unicode="&#x16f;" 
 />
    <glyph glyph-name="Uhungarumlaut" unicode="&#x170;" 
 />
    <glyph glyph-name="uhungarumlaut" unicode="&#x171;" 
 />
    <glyph glyph-name="Uogonek" unicode="&#x172;" 
 />
    <glyph glyph-name="uogonek" unicode="&#x173;" 
 />
    <glyph glyph-name="Wcircumflex" unicode="&#x174;" 
 />
    <glyph glyph-name="wcircumflex" unicode="&#x175;" 
 />
    <glyph glyph-name="Ycircumflex" unicode="&#x176;" 
 />
    <glyph glyph-name="ycircumflex" unicode="&#x177;" 
 />
    <glyph glyph-name="Ydieresis" unicode="&#x178;" 
 />
    <glyph glyph-name="Zacute" unicode="&#x179;" 
 />
    <glyph glyph-name="zacute" unicode="&#x17a;" 
 />
    <glyph glyph-name="Zdotaccent" unicode="&#x17b;" 
 />
    <glyph glyph-name="zdotaccent" unicode="&#x17c;" 
 />
    <glyph glyph-name="Zcaron" unicode="&#x17d;" 
 />
    <glyph glyph-name="zcaron" unicode="&#x17e;" 
 />
    <glyph glyph-name="longs" unicode="&#x17f;" 
 />
    <glyph glyph-name="florin" unicode="&#x192;" 
 />
    <glyph glyph-name="Aringacute" unicode="&#x1fa;" 
 />
    <glyph glyph-name="aringacute" unicode="&#x1fb;" 
 />
    <glyph glyph-name="AEacute" unicode="&#x1fc;" 
 />
    <glyph glyph-name="aeacute" unicode="&#x1fd;" 
 />
    <glyph glyph-name="Oslashacute" unicode="&#x1fe;" 
 />
    <glyph glyph-name="oslashacute" unicode="&#x1ff;" 
 />
    <glyph glyph-name="circumflex" unicode="&#x2c6;" 
 />
    <glyph glyph-name="caron" unicode="&#x2c7;" 
 />
    <glyph glyph-name="uni02C9" unicode="&#x2c9;" 
 />
    <glyph glyph-name="breve" unicode="&#x2d8;" 
 />
    <glyph glyph-name="dotaccent" unicode="&#x2d9;" 
 />
    <glyph glyph-name="ring" unicode="&#x2da;" 
 />
    <glyph glyph-name="ogonek" unicode="&#x2db;" 
 />
    <glyph glyph-name="tilde" unicode="&#x2dc;" 
 />
    <glyph glyph-name="hungarumlaut" unicode="&#x2dd;" 
 />
    <glyph glyph-name="tonos" unicode="&#x384;" 
 />
    <glyph glyph-name="dieresistonos" unicode="&#x385;" 
 />
    <glyph glyph-name="Alphatonos" unicode="&#x386;" 
 />
    <glyph glyph-name="anoteleia" unicode="&#x387;" 
 />
    <glyph glyph-name="Epsilontonos" unicode="&#x388;" 
 />
    <glyph glyph-name="Etatonos" unicode="&#x389;" 
 />
    <glyph glyph-name="Iotatonos" unicode="&#x38a;" 
 />
    <glyph glyph-name="Omicrontonos" unicode="&#x38c;" 
 />
    <glyph glyph-name="Upsilontonos" unicode="&#x38e;" 
 />
    <glyph glyph-name="Omegatonos" unicode="&#x38f;" 
 />
    <glyph glyph-name="iotadieresistonos" unicode="&#x390;" 
 />
    <glyph glyph-name="Alpha" unicode="&#x391;" 
 />
    <glyph glyph-name="Beta" unicode="&#x392;" 
 />
    <glyph glyph-name="Gamma" unicode="&#x393;" 
 />
    <glyph glyph-name="uni0394" unicode="&#x394;" 
 />
    <glyph glyph-name="Epsilon" unicode="&#x395;" 
 />
    <glyph glyph-name="Zeta" unicode="&#x396;" 
 />
    <glyph glyph-name="Eta" unicode="&#x397;" 
 />
    <glyph glyph-name="Theta" unicode="&#x398;" 
 />
    <glyph glyph-name="Iota" unicode="&#x399;" 
 />
    <glyph glyph-name="Kappa" unicode="&#x39a;" 
 />
    <glyph glyph-name="Lambda" unicode="&#x39b;" 
 />
    <glyph glyph-name="Mu" unicode="&#x39c;" 
 />
    <glyph glyph-name="Nu" unicode="&#x39d;" 
 />
    <glyph glyph-name="Xi" unicode="&#x39e;" 
 />
    <glyph glyph-name="Omicron" unicode="&#x39f;" 
 />
    <glyph glyph-name="Pi" unicode="&#x3a0;" 
 />
    <glyph glyph-name="Rho" unicode="&#x3a1;" 
 />
    <glyph glyph-name="Sigma" unicode="&#x3a3;" 
 />
    <glyph glyph-name="Tau" unicode="&#x3a4;" 
 />
    <glyph glyph-name="Upsilon" unicode="&#x3a5;" 
 />
    <glyph glyph-name="Phi" unicode="&#x3a6;" 
 />
    <glyph glyph-name="Chi" unicode="&#x3a7;" 
 />
    <glyph glyph-name="Psi" unicode="&#x3a8;" 
 />
    <glyph glyph-name="uni03A9" unicode="&#x3a9;" 
 />
    <glyph glyph-name="Iotadieresis" unicode="&#x3aa;" 
 />
    <glyph glyph-name="Upsilondieresis" unicode="&#x3ab;" 
 />
    <glyph glyph-name="alphatonos" unicode="&#x3ac;" 
 />
    <glyph glyph-name="epsilontonos" unicode="&#x3ad;" 
 />
    <glyph glyph-name="etatonos" unicode="&#x3ae;" 
 />
    <glyph glyph-name="iotatonos" unicode="&#x3af;" 
 />
    <glyph glyph-name="upsilondieresistonos" unicode="&#x3b0;" 
 />
    <glyph glyph-name="alpha" unicode="&#x3b1;" 
 />
    <glyph glyph-name="beta" unicode="&#x3b2;" 
 />
    <glyph glyph-name="gamma" unicode="&#x3b3;" 
 />
    <glyph glyph-name="delta" unicode="&#x3b4;" 
 />
    <glyph glyph-name="epsilon" unicode="&#x3b5;" 
 />
    <glyph glyph-name="zeta" unicode="&#x3b6;" 
 />
    <glyph glyph-name="eta" unicode="&#x3b7;" 
 />
    <glyph glyph-name="theta" unicode="&#x3b8;" 
 />
    <glyph glyph-name="iota" unicode="&#x3b9;" 
 />
    <glyph glyph-name="kappa" unicode="&#x3ba;" 
 />
    <glyph glyph-name="lambda" unicode="&#x3bb;" 
 />
    <glyph glyph-name="uni03BC" unicode="&#x3bc;" 
 />
    <glyph glyph-name="nu" unicode="&#x3bd;" 
 />
    <glyph glyph-name="xi" unicode="&#x3be;" 
 />
    <glyph glyph-name="omicron" unicode="&#x3bf;" 
 />
    <glyph glyph-name="pi" unicode="&#x3c0;" 
 />
    <glyph glyph-name="rho" unicode="&#x3c1;" 
 />
    <glyph glyph-name="sigma1" unicode="&#x3c2;" 
 />
    <glyph glyph-name="sigma" unicode="&#x3c3;" 
 />
    <glyph glyph-name="tau" unicode="&#x3c4;" 
 />
    <glyph glyph-name="upsilon" unicode="&#x3c5;" 
 />
    <glyph glyph-name="phi" unicode="&#x3c6;" 
 />
    <glyph glyph-name="chi" unicode="&#x3c7;" 
 />
    <glyph glyph-name="psi" unicode="&#x3c8;" 
 />
    <glyph glyph-name="omega" unicode="&#x3c9;" 
 />
    <glyph glyph-name="iotadieresis" unicode="&#x3ca;" 
 />
    <glyph glyph-name="upsilondieresis" unicode="&#x3cb;" 
 />
    <glyph glyph-name="omicrontonos" unicode="&#x3cc;" 
 />
    <glyph glyph-name="upsilontonos" unicode="&#x3cd;" 
 />
    <glyph glyph-name="omegatonos" unicode="&#x3ce;" 
 />
    <glyph glyph-name="afii10023" unicode="&#x401;" 
 />
    <glyph glyph-name="afii10051" unicode="&#x402;" 
 />
    <glyph glyph-name="afii10052" unicode="&#x403;" 
 />
    <glyph glyph-name="afii10053" unicode="&#x404;" 
 />
    <glyph glyph-name="afii10054" unicode="&#x405;" 
 />
    <glyph glyph-name="afii10055" unicode="&#x406;" 
 />
    <glyph glyph-name="afii10056" unicode="&#x407;" 
 />
    <glyph glyph-name="afii10057" unicode="&#x408;" 
 />
    <glyph glyph-name="afii10058" unicode="&#x409;" 
 />
    <glyph glyph-name="afii10059" unicode="&#x40a;" 
 />
    <glyph glyph-name="afii10060" unicode="&#x40b;" 
 />
    <glyph glyph-name="afii10061" unicode="&#x40c;" 
 />
    <glyph glyph-name="afii10062" unicode="&#x40e;" 
 />
    <glyph glyph-name="afii10145" unicode="&#x40f;" 
 />
    <glyph glyph-name="afii10017" unicode="&#x410;" 
 />
    <glyph glyph-name="afii10018" unicode="&#x411;" 
 />
    <glyph glyph-name="afii10019" unicode="&#x412;" 
 />
    <glyph glyph-name="afii10020" unicode="&#x413;" 
 />
    <glyph glyph-name="afii10021" unicode="&#x414;" 
 />
    <glyph glyph-name="afii10022" unicode="&#x415;" 
 />
    <glyph glyph-name="afii10024" unicode="&#x416;" 
 />
    <glyph glyph-name="afii10025" unicode="&#x417;" 
 />
    <glyph glyph-name="afii10026" unicode="&#x418;" 
 />
    <glyph glyph-name="afii10027" unicode="&#x419;" 
 />
    <glyph glyph-name="afii10028" unicode="&#x41a;" 
 />
    <glyph glyph-name="afii10029" unicode="&#x41b;" 
 />
    <glyph glyph-name="afii10030" unicode="&#x41c;" 
 />
    <glyph glyph-name="afii10031" unicode="&#x41d;" 
 />
    <glyph glyph-name="afii10032" unicode="&#x41e;" 
 />
    <glyph glyph-name="afii10033" unicode="&#x41f;" 
 />
    <glyph glyph-name="afii10034" unicode="&#x420;" 
 />
    <glyph glyph-name="afii10035" unicode="&#x421;" 
 />
    <glyph glyph-name="afii10036" unicode="&#x422;" 
 />
    <glyph glyph-name="afii10037" unicode="&#x423;" 
 />
    <glyph glyph-name="afii10038" unicode="&#x424;" 
 />
    <glyph glyph-name="afii10039" unicode="&#x425;" 
 />
    <glyph glyph-name="afii10040" unicode="&#x426;" 
 />
    <glyph glyph-name="afii10041" unicode="&#x427;" 
 />
    <glyph glyph-name="afii10042" unicode="&#x428;" 
 />
    <glyph glyph-name="afii10043" unicode="&#x429;" 
 />
    <glyph glyph-name="afii10044" unicode="&#x42a;" 
 />
    <glyph glyph-name="afii10045" unicode="&#x42b;" 
 />
    <glyph glyph-name="afii10046" unicode="&#x42c;" 
 />
    <glyph glyph-name="afii10047" unicode="&#x42d;" 
 />
    <glyph glyph-name="afii10048" unicode="&#x42e;" 
 />
    <glyph glyph-name="afii10049" unicode="&#x42f;" 
 />
    <glyph glyph-name="afii10065" unicode="&#x430;" 
 />
    <glyph glyph-name="afii10066" unicode="&#x431;" 
 />
    <glyph glyph-name="afii10067" unicode="&#x432;" 
 />
    <glyph glyph-name="afii10068" unicode="&#x433;" 
 />
    <glyph glyph-name="afii10069" unicode="&#x434;" 
 />
    <glyph glyph-name="afii10070" unicode="&#x435;" 
 />
    <glyph glyph-name="afii10072" unicode="&#x436;" 
 />
    <glyph glyph-name="afii10073" unicode="&#x437;" 
 />
    <glyph glyph-name="afii10074" unicode="&#x438;" 
 />
    <glyph glyph-name="afii10075" unicode="&#x439;" 
 />
    <glyph glyph-name="afii10076" unicode="&#x43a;" 
 />
    <glyph glyph-name="afii10077" unicode="&#x43b;" 
 />
    <glyph glyph-name="afii10078" unicode="&#x43c;" 
 />
    <glyph glyph-name="afii10079" unicode="&#x43d;" 
 />
    <glyph glyph-name="afii10080" unicode="&#x43e;" 
 />
    <glyph glyph-name="afii10081" unicode="&#x43f;" 
 />
    <glyph glyph-name="afii10082" unicode="&#x440;" 
 />
    <glyph glyph-name="afii10083" unicode="&#x441;" 
 />
    <glyph glyph-name="afii10084" unicode="&#x442;" 
 />
    <glyph glyph-name="afii10085" unicode="&#x443;" 
 />
    <glyph glyph-name="afii10086" unicode="&#x444;" 
 />
    <glyph glyph-name="afii10087" unicode="&#x445;" 
 />
    <glyph glyph-name="afii10088" unicode="&#x446;" 
 />
    <glyph glyph-name="afii10089" unicode="&#x447;" 
 />
    <glyph glyph-name="afii10090" unicode="&#x448;" 
 />
    <glyph glyph-name="afii10091" unicode="&#x449;" 
 />
    <glyph glyph-name="afii10092" unicode="&#x44a;" 
 />
    <glyph glyph-name="afii10093" unicode="&#x44b;" 
 />
    <glyph glyph-name="afii10094" unicode="&#x44c;" 
 />
    <glyph glyph-name="afii10095" unicode="&#x44d;" 
 />
    <glyph glyph-name="afii10096" unicode="&#x44e;" 
 />
    <glyph glyph-name="afii10097" unicode="&#x44f;" 
 />
    <glyph glyph-name="afii10071" unicode="&#x451;" 
 />
    <glyph glyph-name="afii10099" unicode="&#x452;" 
 />
    <glyph glyph-name="afii10100" unicode="&#x453;" 
 />
    <glyph glyph-name="afii10101" unicode="&#x454;" 
 />
    <glyph glyph-name="afii10102" unicode="&#x455;" 
 />
    <glyph glyph-name="afii10103" unicode="&#x456;" 
 />
    <glyph glyph-name="afii10104" unicode="&#x457;" 
 />
    <glyph glyph-name="afii10105" unicode="&#x458;" 
 />
    <glyph glyph-name="afii10106" unicode="&#x459;" 
 />
    <glyph glyph-name="afii10107" unicode="&#x45a;" 
 />
    <glyph glyph-name="afii10108" unicode="&#x45b;" 
 />
    <glyph glyph-name="afii10109" unicode="&#x45c;" 
 />
    <glyph glyph-name="afii10110" unicode="&#x45e;" 
 />
    <glyph glyph-name="afii10193" unicode="&#x45f;" 
 />
    <glyph glyph-name="afii10050" unicode="&#x490;" 
 />
    <glyph glyph-name="afii10098" unicode="&#x491;" 
 />
    <glyph glyph-name="Wgrave" unicode="&#x1e80;" 
 />
    <glyph glyph-name="wgrave" unicode="&#x1e81;" 
 />
    <glyph glyph-name="Wacute" unicode="&#x1e82;" 
 />
    <glyph glyph-name="wacute" unicode="&#x1e83;" 
 />
    <glyph glyph-name="Wdieresis" unicode="&#x1e84;" 
 />
    <glyph glyph-name="wdieresis" unicode="&#x1e85;" 
 />
    <glyph glyph-name="Ygrave" unicode="&#x1ef2;" 
 />
    <glyph glyph-name="ygrave" unicode="&#x1ef3;" 
 />
    <glyph glyph-name="endash" unicode="&#x2013;" 
 />
    <glyph glyph-name="emdash" unicode="&#x2014;" 
 />
    <glyph glyph-name="afii00208" unicode="&#x2015;" 
 />
    <glyph glyph-name="underscoredbl" unicode="&#x2017;" 
 />
    <glyph glyph-name="quoteleft" unicode="&#x2018;" horiz-adv-x="419" 
d="M208 1126h-158l82 334h237z" />
    <glyph glyph-name="quoteright" unicode="&#x2019;" horiz-adv-x="419" 
d="M208 1126h-158l82 334h237z" />
    <glyph glyph-name="quotesinglbase" unicode="&#x201a;" 
 />
    <glyph glyph-name="quotereversed" unicode="&#x201b;" 
 />
    <glyph glyph-name="quotedblleft" unicode="&#x201c;" horiz-adv-x="712" 
d="M501 1126h-158l82 334h237zM208 1126h-158l82 334h237z" />
    <glyph glyph-name="quotedblright" unicode="&#x201d;" horiz-adv-x="712" 
d="M501 1126h-158l82 334h237zM208 1126h-158l82 334h237z" />
    <glyph glyph-name="quotedblbase" unicode="&#x201e;" 
 />
    <glyph glyph-name="dagger" unicode="&#x2020;" 
 />
    <glyph glyph-name="daggerdbl" unicode="&#x2021;" 
 />
    <glyph glyph-name="bullet" unicode="&#x2022;" 
 />
    <glyph glyph-name="ellipsis" unicode="&#x2026;" 
 />
    <glyph glyph-name="perthousand" unicode="&#x2030;" 
 />
    <glyph glyph-name="minute" unicode="&#x2032;" 
 />
    <glyph glyph-name="second" unicode="&#x2033;" 
 />
    <glyph glyph-name="guilsinglleft" unicode="&#x2039;" 
 />
    <glyph glyph-name="guilsinglright" unicode="&#x203a;" 
 />
    <glyph glyph-name="exclamdbl" unicode="&#x203c;" 
 />
    <glyph glyph-name="uni203E" unicode="&#x203e;" 
 />
    <glyph glyph-name="fraction" unicode="&#x2044;" 
 />
    <glyph glyph-name="fraction" unicode="&#x2215;" 
 />
    <glyph glyph-name="uni207F" unicode="&#x207f;" 
 />
    <glyph glyph-name="franc" unicode="&#x20a3;" 
 />
    <glyph glyph-name="lira" unicode="&#x20a4;" 
 />
    <glyph glyph-name="peseta" unicode="&#x20a7;" 
 />
    <glyph glyph-name="Euro" unicode="&#x20ac;" 
 />
    <glyph glyph-name="afii61248" unicode="&#x2105;" 
 />
    <glyph glyph-name="afii61289" unicode="&#x2113;" 
 />
    <glyph glyph-name="afii61352" unicode="&#x2116;" 
 />
    <glyph glyph-name="trademark" unicode="&#x2122;" horiz-adv-x="690" 
d="M595 1156l-62 153l-73 -139l-73 139l-42 -138l-75 24l111 278l69 -171l97 168l113 -273zM30 1442l265 19l4 -81l-97 -4l-11 -199l-72 -8l-16 204l-73 -4v73z" />
    <glyph glyph-name="Omega" unicode="&#x2126;" 
 />
    <glyph glyph-name="estimated" unicode="&#x212e;" 
 />
    <glyph glyph-name="oneeighth" unicode="&#x215b;" 
 />
    <glyph glyph-name="threeeighths" unicode="&#x215c;" 
 />
    <glyph glyph-name="fiveeighths" unicode="&#x215d;" 
 />
    <glyph glyph-name="seveneighths" unicode="&#x215e;" 
 />
    <glyph glyph-name="arrowleft" unicode="&#x2190;" 
 />
    <glyph glyph-name="arrowup" unicode="&#x2191;" 
 />
    <glyph glyph-name="arrowright" unicode="&#x2192;" 
 />
    <glyph glyph-name="arrowdown" unicode="&#x2193;" 
 />
    <glyph glyph-name="arrowboth" unicode="&#x2194;" 
 />
    <glyph glyph-name="arrowupdn" unicode="&#x2195;" 
 />
    <glyph glyph-name="arrowupdnbse" unicode="&#x21a8;" 
 />
    <glyph glyph-name="partialdiff" unicode="&#x2202;" 
 />
    <glyph glyph-name="Delta" unicode="&#x2206;" 
 />
    <glyph glyph-name="product" unicode="&#x220f;" 
 />
    <glyph glyph-name="summation" unicode="&#x2211;" 
 />
    <glyph glyph-name="minus" unicode="&#x2212;" 
 />
    <glyph glyph-name="radical" unicode="&#x221a;" 
 />
    <glyph glyph-name="infinity" unicode="&#x221e;" 
 />
    <glyph glyph-name="orthogonal" unicode="&#x221f;" 
 />
    <glyph glyph-name="intersection" unicode="&#x2229;" 
 />
    <glyph glyph-name="integral" unicode="&#x222b;" 
 />
    <glyph glyph-name="approxequal" unicode="&#x2248;" 
 />
    <glyph glyph-name="notequal" unicode="&#x2260;" 
 />
    <glyph glyph-name="equivalence" unicode="&#x2261;" 
 />
    <glyph glyph-name="lessequal" unicode="&#x2264;" 
 />
    <glyph glyph-name="greaterequal" unicode="&#x2265;" 
 />
    <glyph glyph-name="house" unicode="&#x2302;" 
 />
    <glyph glyph-name="revlogicalnot" unicode="&#x2310;" 
 />
    <glyph glyph-name="integraltp" unicode="&#x2320;" 
 />
    <glyph glyph-name="integralbt" unicode="&#x2321;" 
 />
    <glyph glyph-name="SF100000" unicode="&#x2500;" 
 />
    <glyph glyph-name="SF110000" unicode="&#x2502;" 
 />
    <glyph glyph-name="SF010000" unicode="&#x250c;" 
 />
    <glyph glyph-name="SF030000" unicode="&#x2510;" 
 />
    <glyph glyph-name="SF020000" unicode="&#x2514;" 
 />
    <glyph glyph-name="SF040000" unicode="&#x2518;" 
 />
    <glyph glyph-name="SF080000" unicode="&#x251c;" 
 />
    <glyph glyph-name="SF090000" unicode="&#x2524;" 
 />
    <glyph glyph-name="SF060000" unicode="&#x252c;" 
 />
    <glyph glyph-name="SF070000" unicode="&#x2534;" 
 />
    <glyph glyph-name="SF050000" unicode="&#x253c;" 
 />
    <glyph glyph-name="SF430000" unicode="&#x2550;" 
 />
    <glyph glyph-name="SF240000" unicode="&#x2551;" 
 />
    <glyph glyph-name="SF510000" unicode="&#x2552;" 
 />
    <glyph glyph-name="SF520000" unicode="&#x2553;" 
 />
    <glyph glyph-name="SF390000" unicode="&#x2554;" 
 />
    <glyph glyph-name="SF220000" unicode="&#x2555;" 
 />
    <glyph glyph-name="SF210000" unicode="&#x2556;" 
 />
    <glyph glyph-name="SF250000" unicode="&#x2557;" 
 />
    <glyph glyph-name="SF500000" unicode="&#x2558;" 
 />
    <glyph glyph-name="SF490000" unicode="&#x2559;" 
 />
    <glyph glyph-name="SF380000" unicode="&#x255a;" 
 />
    <glyph glyph-name="SF280000" unicode="&#x255b;" 
 />
    <glyph glyph-name="SF270000" unicode="&#x255c;" 
 />
    <glyph glyph-name="SF260000" unicode="&#x255d;" 
 />
    <glyph glyph-name="SF360000" unicode="&#x255e;" 
 />
    <glyph glyph-name="SF370000" unicode="&#x255f;" 
 />
    <glyph glyph-name="SF420000" unicode="&#x2560;" 
 />
    <glyph glyph-name="SF190000" unicode="&#x2561;" 
 />
    <glyph glyph-name="SF200000" unicode="&#x2562;" 
 />
    <glyph glyph-name="SF230000" unicode="&#x2563;" 
 />
    <glyph glyph-name="SF470000" unicode="&#x2564;" 
 />
    <glyph glyph-name="SF480000" unicode="&#x2565;" 
 />
    <glyph glyph-name="SF410000" unicode="&#x2566;" 
 />
    <glyph glyph-name="SF450000" unicode="&#x2567;" 
 />
    <glyph glyph-name="SF460000" unicode="&#x2568;" 
 />
    <glyph glyph-name="SF400000" unicode="&#x2569;" 
 />
    <glyph glyph-name="SF540000" unicode="&#x256a;" 
 />
    <glyph glyph-name="SF530000" unicode="&#x256b;" 
 />
    <glyph glyph-name="SF440000" unicode="&#x256c;" 
 />
    <glyph glyph-name="upblock" unicode="&#x2580;" 
 />
    <glyph glyph-name="dnblock" unicode="&#x2584;" 
 />
    <glyph glyph-name="block" unicode="&#x2588;" 
 />
    <glyph glyph-name="lfblock" unicode="&#x258c;" 
 />
    <glyph glyph-name="rtblock" unicode="&#x2590;" 
 />
    <glyph glyph-name="ltshade" unicode="&#x2591;" 
 />
    <glyph glyph-name="shade" unicode="&#x2592;" 
 />
    <glyph glyph-name="dkshade" unicode="&#x2593;" 
 />
    <glyph glyph-name="filledbox" unicode="&#x25a0;" 
 />
    <glyph glyph-name="H22073" unicode="&#x25a1;" 
 />
    <glyph glyph-name="H18543" unicode="&#x25aa;" 
 />
    <glyph glyph-name="H18551" unicode="&#x25ab;" 
 />
    <glyph glyph-name="filledrect" unicode="&#x25ac;" 
 />
    <glyph glyph-name="triagup" unicode="&#x25b2;" 
 />
    <glyph glyph-name="triagrt" unicode="&#x25ba;" 
 />
    <glyph glyph-name="triagdn" unicode="&#x25bc;" 
 />
    <glyph glyph-name="triaglf" unicode="&#x25c4;" 
 />
    <glyph glyph-name="lozenge" unicode="&#x25ca;" 
 />
    <glyph glyph-name="circle" unicode="&#x25cb;" 
 />
    <glyph glyph-name="H18533" unicode="&#x25cf;" 
 />
    <glyph glyph-name="invbullet" unicode="&#x25d8;" 
 />
    <glyph glyph-name="invcircle" unicode="&#x25d9;" 
 />
    <glyph glyph-name="openbullet" unicode="&#x25e6;" 
 />
    <glyph glyph-name="smileface" unicode="&#x263a;" 
 />
    <glyph glyph-name="invsmileface" unicode="&#x263b;" 
 />
    <glyph glyph-name="sun" unicode="&#x263c;" 
 />
    <glyph glyph-name="female" unicode="&#x2640;" 
 />
    <glyph glyph-name="male" unicode="&#x2642;" 
 />
    <glyph glyph-name="spade" unicode="&#x2660;" 
 />
    <glyph glyph-name="club" unicode="&#x2663;" 
 />
    <glyph glyph-name="heart" unicode="&#x2665;" 
 />
    <glyph glyph-name="diamond" unicode="&#x2666;" 
 />
    <glyph glyph-name="musicalnote" unicode="&#x266a;" 
 />
    <glyph glyph-name="musicalnotedbl" unicode="&#x266b;" 
 />
    <glyph glyph-name="uniF001" unicode="&#xf001;" 
 />
    <glyph glyph-name="uniF001" unicode="&#xfb01;" 
 />
    <glyph glyph-name="uniF002" unicode="&#xf002;" 
 />
    <glyph glyph-name="uniF002" unicode="&#xfb02;" 
 />
    <glyph glyph-name="uniF004" unicode="&#xf004;" 
 />
    <glyph glyph-name="uniF005" unicode="&#xf005;" 
 />
    <glyph glyph-name=".null" horiz-adv-x="40" 
 />
    <glyph glyph-name="nonmarkingreturn" horiz-adv-x="40" 
 />
    <glyph glyph-name="glyph155" 
 />
    </font>
</defs>
</svg>
